<svg xmlns="http://www.w3.org/2000/svg" width="26.043" height="26.043" viewBox="0 0 26.043 26.043">
  <g id="_002-menu" data-name="002-menu" transform="translate(0.25 0.25)">
    <g id="Grupo_354" data-name="Grupo 354" transform="translate(0 0)">
      <path id="Trazado_1269" data-name="Trazado 1269" d="M22.55,13.769H16.763a3,3,0,0,0-2.993,2.993v5.787a3,3,0,0,0,2.993,2.993H22.55a3,3,0,0,0,2.993-2.993V16.762A3,3,0,0,0,22.55,13.769Zm1,8.78a1,1,0,0,1-1,1H16.763a1,1,0,0,1-1-1V16.762a1,1,0,0,1,1-1H22.55a1,1,0,0,1,1,1ZM8.78,13.769H2.993A3,3,0,0,0,0,16.762v5.787a3,3,0,0,0,2.993,2.993H8.78a3,3,0,0,0,2.993-2.993V16.762A3,3,0,0,0,8.78,13.769Zm1,8.78a1,1,0,0,1-1,1H2.993a1,1,0,0,1-1-1V16.762a1,1,0,0,1,1-1H8.78a1,1,0,0,1,1,1ZM8.78,0H2.993A3,3,0,0,0,0,2.993V8.78a3,3,0,0,0,2.993,2.993H8.78A3,3,0,0,0,11.774,8.78V2.993A3,3,0,0,0,8.78,0Zm1,8.78a1,1,0,0,1-1,1H2.993a1,1,0,0,1-1-1V2.993a1,1,0,0,1,1-1H8.78a1,1,0,0,1,1,1ZM22.55,0H16.763a3,3,0,0,0-2.993,2.993V8.78a3,3,0,0,0,2.993,2.993H22.55A3,3,0,0,0,25.543,8.78V2.993A3,3,0,0,0,22.55,0Zm1,8.78a1,1,0,0,1-1,1H16.763a1,1,0,0,1-1-1V2.993a1,1,0,0,1,1-1H22.55a1,1,0,0,1,1,1Z" transform="translate(0 0)" fill="#ec1c24" stroke="#ec1c24" stroke-width="0.5"/>
    </g>
  </g>
</svg>
