<svg xmlns="http://www.w3.org/2000/svg" width="22.599" height="22.6" viewBox="0 0 22.599 22.6">
  <g id="_019-settings" data-name="019-settings" transform="translate(-0.001)" opacity="0.5">
    <g id="Grupo_371" data-name="Grupo 371" transform="translate(0.001 0)">
      <path id="Trazado_1286" data-name="Trazado 1286" d="M21.027,11.3A9.256,9.256,0,0,0,20.9,9.776l1.716-1.23L19.039,2.42,17.3,3.688A9.583,9.583,0,0,0,14.847,2.3V0H7.785V2.3A9.573,9.573,0,0,0,5.23,3.77L3.5,2.962.029,9.081l1.687.81a9.048,9.048,0,0,0,.019,2.934L.015,14.063,3.567,19.93l1.72-1.054a9.577,9.577,0,0,0,2.5,1.427v2.3h7.063V20.3A9.58,9.58,0,0,0,17.3,18.912l1.739,1.268,3.575-6.126L20.9,12.824a9.253,9.253,0,0,0,.129-1.524ZM19.062,9.579a7.52,7.52,0,0,1,0,3.442l-.126.569,1.343.963L18.5,17.6l-1.3-.951-.533.488a7.857,7.857,0,0,1-2.965,1.7l-.617.2v1.8H9.55v-1.8l-.617-.2a7.857,7.857,0,0,1-2.965-1.7l-.49-.449-1.32.809L2.37,14.543,3.7,13.588l-.126-.567a7.518,7.518,0,0,1,0-3.441L3.721,8.9,2.5,8.307,4.229,5.251l1.306.609.435-.4a7.858,7.858,0,0,1,2.965-1.7l.616-.2v-1.8h3.531v1.8l.616.2a7.857,7.857,0,0,1,2.965,1.7l.533.488L18.5,5l1.779,3.049-1.343.963ZM11.316,5.12A6.18,6.18,0,1,0,17.5,11.3,6.187,6.187,0,0,0,11.316,5.12Zm0,10.594A4.414,4.414,0,1,1,15.73,11.3,4.419,4.419,0,0,1,11.316,15.714Z" transform="translate(-0.015 0)"/>
    </g>
  </g>
</svg>
