<svg xmlns="http://www.w3.org/2000/svg" width="40.96" height="44.346" viewBox="0 0 40.96 44.346">
  <g id="_030-paper_clip" data-name="030-paper clip" transform="translate(0.5 0.5)">
    <path id="Trazado_993" data-name="Trazado 993" d="M48.107,43.346H20V6.773H43.028a6.773,6.773,0,0,1,13.546,0H59.96V31.494A11.866,11.866,0,0,1,48.107,43.346ZM23.386,39.96H46.414V29.8H56.574V10.159H46.414v8.466a1.693,1.693,0,0,0,3.386,0v-5.08h3.386v5.08a5.08,5.08,0,0,1-10.159,0V10.159H23.386ZM49.8,33.187v6.6a8.493,8.493,0,0,0,6.6-6.6ZM46.414,6.773h6.773a3.386,3.386,0,0,0-6.773,0ZM39.641,33.526H26.773V30.139H39.641Zm0-6.773H26.773V23.366H39.641Zm0-6.773H26.773V16.594H39.641Z" transform="translate(-20)" stroke="#e5e5e5" stroke-width="1"/>
  </g>
</svg>
