<svg xmlns="http://www.w3.org/2000/svg" width="22.515" height="24.381" viewBox="0 0 22.515 24.381">
  <g id="_030-paper_clip" data-name="030-paper clip" transform="translate(0.25 0.25)" opacity="0.5">
    <path id="Trazado_993" data-name="Trazado 993" d="M35.485,23.881H20V3.731H32.687a3.731,3.731,0,0,1,7.463,0h1.866v13.62A6.537,6.537,0,0,1,35.485,23.881Zm-13.62-1.866H34.553v-5.6h5.6V5.6h-5.6v4.664a.933.933,0,0,0,1.866,0v-2.8h1.866v2.8a2.8,2.8,0,0,1-5.6,0V5.6H21.866Zm14.553-3.731v3.638a4.679,4.679,0,0,0,3.638-3.638ZM34.553,3.731h3.731a1.866,1.866,0,0,0-3.731,0ZM30.821,18.47h-7.09V16.6h7.09Zm0-3.731h-7.09V12.873h7.09Zm0-3.731h-7.09V9.142h7.09Z" transform="translate(-20)" stroke="#fff" stroke-width="0.5"/>
  </g>
</svg>
