<?xml version="1.0" encoding="UTF-8"?>
<svg id="Capa_1" data-name="Capa 1" xmlns="http://www.w3.org/2000/svg" xmlns:xlink="http://www.w3.org/1999/xlink" viewBox="0 0 355 33">
  <defs>
    <style>
      .cls-1 {
        opacity: .3;
      }

      .cls-1, .cls-2 {
        isolation: isolate;
      }

      .cls-3, .cls-4, .cls-5, .cls-6 {
        stroke-width: 0px;
      }

      .cls-4 {
        fill: #fff;
      }

      .cls-5 {
        fill: #b1b1b1;
      }

      .cls-6 {
        fill: url(#Degradado_sin_nombre_6);
      }
    </style>
    <linearGradient id="Degradado_sin_nombre_6" data-name="Degradado sin nombre 6" x1="167" y1="16.5" x2="355" y2="16.5" gradientUnits="userSpaceOnUse">
      <stop offset="0" stop-color="#740d11"/>
      <stop offset="1" stop-color="#e81b23"/>
    </linearGradient>
  </defs>
  <g>
    <path id="Trazado_1370-3" data-name="Trazado 1370-3" class="cls-5" d="m16.5,0h322c9.11,0,16.5,7.39,16.5,16.5s-7.39,16.5-16.5,16.5H16.5C7.39,33,0,25.61,0,16.5S7.39,0,16.5,0Z"/>
    <path id="Trazado_1370-4" data-name="Trazado 1370-4" class="cls-5" d="m16.5,0h322c9.11,0,16.5,7.39,16.5,16.5s-7.39,16.5-16.5,16.5H16.5C7.39,33,0,25.61,0,16.5S7.39,0,16.5,0Z"/>
  </g>
  <g>
    <path id="Rect치ngulo_192-3" data-name="Rect치ngulo 192-3" class="cls-6" d="m183.5,0h155c9.11,0,16.5,7.39,16.5,16.5h0c0,9.11-7.39,16.5-16.5,16.5h-155c-9.11,0-16.5-7.39-16.5-16.5h0c0-9.11,7.39-16.5,16.5-16.5Z"/>
    <path id="Rect치ngulo_192-4" data-name="Rect치ngulo 192-4" class="cls-6" d="m183.5,0h155c9.11,0,16.5,7.39,16.5,16.5h0c0,9.11-7.39,16.5-16.5,16.5h-155c-9.11,0-16.5-7.39-16.5-16.5h0c0-9.11,7.39-16.5,16.5-16.5Z"/>
  </g>
  <g id="Summer_Bag" data-name="Summer Bag" class="cls-1">
    <g class="cls-2">
      <path class="cls-3" d="m74.15,10.67h3.39l4.82,7.87h.03v-7.87h2.5v11.33h-3.26l-4.94-8.06h-.03v8.06h-2.5v-11.33Z"/>
      <path class="cls-3" d="m94.25,20.66c-.38.49-.87.87-1.46,1.14-.59.27-1.19.4-1.82.4s-1.16-.1-1.69-.29c-.53-.19-.99-.47-1.38-.82-.39-.36-.7-.79-.92-1.29-.22-.5-.34-1.06-.34-1.68s.11-1.18.34-1.68c.22-.5.53-.93.92-1.29.39-.36.85-.63,1.38-.82.53-.19,1.09-.29,1.69-.29.55,0,1.06.1,1.51.29.45.19.84.47,1.15.82.31.36.56.79.73,1.29.17.5.26,1.06.26,1.68v.75h-5.57c.1.46.3.82.62,1.1.32.27.71.41,1.18.41.39,0,.73-.09,1-.26.27-.18.51-.4.71-.68l1.68,1.23Zm-2.03-3.42c.01-.41-.12-.75-.4-1.04s-.63-.43-1.07-.43c-.27,0-.5.04-.7.13-.2.09-.38.2-.52.33-.14.13-.26.29-.34.46-.08.18-.13.36-.14.55h3.17Z"/>
      <path class="cls-3" d="m95.14,14.22h2.56l1.58,4.88h.03l1.33-4.88h2.62l1.44,4.88h.03l1.46-4.88h2.43l-2.77,7.78h-2.37l-1.62-5.17h-.03l-1.44,5.17h-2.42l-2.85-7.78Z"/>
    </g>
  </g>
  <g id="Summer_Bag-2" data-name="Summer Bag-2" class="cls-2">
    <g class="cls-2">
      <path class="cls-4" d="m233.15,10.67h2.5v4.22h4.85v-4.22h2.5v11.33h-2.5v-4.9h-4.85v4.9h-2.5v-11.33Z"/>
      <path class="cls-4" d="m244.83,11.78c0-.38.14-.71.41-.98s.6-.41.98-.41.71.14.98.41.41.6.41.98-.14.71-.41.98c-.27.27-.6.41-.98.41s-.71-.14-.98-.41c-.27-.27-.41-.6-.41-.98Zm.19,2.45h2.4v7.78h-2.4v-7.78Z"/>
      <path class="cls-4" d="m253.55,16.51c-.35-.44-.82-.66-1.39-.66-.2,0-.4.05-.59.14-.19.1-.29.26-.29.5,0,.19.1.33.3.42s.45.17.75.24c.3.07.63.14.98.22s.67.21.98.38c.3.17.55.4.75.7.2.29.3.69.3,1.18s-.11.92-.33,1.24-.5.59-.84.78-.73.34-1.15.42c-.43.08-.85.12-1.26.12-.54,0-1.09-.08-1.65-.23s-1.02-.43-1.41-.82l1.46-1.62c.22.28.47.49.74.63.27.14.59.22.95.22.28,0,.53-.04.75-.12s.34-.23.34-.44c0-.2-.1-.35-.3-.46-.2-.1-.45-.19-.75-.26-.3-.07-.63-.14-.98-.22-.35-.08-.67-.2-.98-.36s-.55-.39-.75-.68c-.2-.29-.3-.69-.3-1.18,0-.46.09-.85.28-1.18.19-.33.43-.6.74-.82.3-.21.65-.37,1.05-.47.39-.1.79-.15,1.2-.15.51,0,1.03.07,1.55.22.52.15.97.42,1.33.8l-1.47,1.46Z"/>
      <path class="cls-4" d="m261.86,16.14h-2.11v2.59c0,.21.01.41.03.58.02.18.07.33.14.46s.19.23.34.3c.15.07.36.1.62.1.13,0,.3-.01.5-.04.21-.03.37-.09.47-.18v2c-.27.1-.54.16-.83.19-.29.03-.57.05-.85.05-.41,0-.78-.04-1.12-.13-.34-.09-.64-.22-.9-.41-.26-.19-.46-.43-.6-.73-.14-.3-.22-.66-.22-1.09v-3.7h-1.54v-1.92h1.54v-2.3h2.4v2.3h2.11v1.92Z"/>
      <path class="cls-4" d="m262.78,18.11c0-.62.11-1.18.34-1.68.22-.5.53-.93.92-1.29.39-.36.85-.63,1.38-.82.53-.19,1.09-.29,1.69-.29s1.16.1,1.69.29c.53.19.99.47,1.38.82.39.36.7.79.92,1.29.22.5.34,1.06.34,1.68s-.11,1.18-.34,1.68c-.22.5-.53.93-.92,1.29s-.85.63-1.38.82c-.53.19-1.09.29-1.69.29s-1.16-.1-1.69-.29c-.53-.19-.99-.47-1.38-.82-.39-.36-.7-.79-.92-1.29-.22-.5-.34-1.06-.34-1.68Zm2.4,0c0,.59.17,1.06.5,1.42s.81.54,1.42.54,1.08-.18,1.42-.54.5-.84.5-1.42-.17-1.06-.5-1.42c-.34-.36-.81-.54-1.42-.54s-1.08.18-1.42.54c-.34.36-.5.84-.5,1.42Z"/>
      <path class="cls-4" d="m272.83,14.22h2.4v1.25h.03c.26-.48.56-.84.91-1.08.35-.24.79-.36,1.33-.36.14,0,.28,0,.42.02s.27.03.38.06v2.19c-.17-.05-.34-.09-.5-.12-.17-.03-.34-.04-.52-.04-.46,0-.82.06-1.09.19s-.47.31-.62.54c-.14.23-.24.5-.28.82-.04.32-.06.67-.06,1.06v3.25h-2.4v-7.78Z"/>
      <path class="cls-4" d="m279.18,11.78c0-.38.14-.71.41-.98s.6-.41.98-.41.71.14.98.41.41.6.41.98-.14.71-.41.98c-.27.27-.6.41-.98.41s-.71-.14-.98-.41c-.27-.27-.41-.6-.41-.98Zm.19,2.45h2.4v7.78h-2.4v-7.78Z"/>
      <path class="cls-4" d="m288.38,21.02h-.03c-.27.42-.62.71-1.06.9-.44.18-.91.27-1.4.27-.36,0-.71-.05-1.05-.15s-.63-.25-.89-.46c-.26-.2-.46-.45-.61-.75s-.22-.65-.22-1.04c0-.45.08-.83.25-1.14s.39-.57.67-.77c.28-.2.61-.36.97-.47.36-.11.74-.19,1.13-.25.39-.05.78-.08,1.17-.1.39-.01.75-.02,1.08-.02,0-.43-.15-.76-.46-1.02s-.66-.38-1.08-.38c-.39,0-.75.08-1.08.25s-.62.39-.87.68l-1.28-1.31c.45-.42.97-.73,1.57-.94.6-.21,1.22-.31,1.86-.31.7,0,1.28.09,1.74.26.45.18.82.43,1.09.78.27.34.46.76.57,1.26s.16,1.07.16,1.72v3.95h-2.21v-.98Zm-.59-2.43c-.18,0-.41,0-.68.02-.27.02-.53.06-.78.14-.25.08-.46.19-.64.34-.18.15-.26.36-.26.62,0,.29.12.5.37.64.25.14.5.21.77.21.23,0,.46-.03.68-.1.22-.06.41-.15.58-.27.17-.12.31-.27.41-.45.1-.18.15-.39.15-.64v-.51h-.59Z"/>
      <path class="cls-4" d="m292.13,9.9h2.4v12.1h-2.4v-12.1Z"/>
    </g>
  </g>
</svg>