<svg xmlns="http://www.w3.org/2000/svg" width="44.1" height="48.8" viewBox="0 0 44.1 48.8">
  <g id="Grupo_1020" data-name="Grupo 1020" transform="translate(-1187.2 -2373.3)">
    <path id="Trazado_14202" data-name="Trazado 14202" d="M701.6,500.5h-5.7v5.7h5.7Zm-9.8,0h-5.7v5.7h5.7Zm-10.5,0h-5.7v5.7h5.7Z" transform="translate(520.6 1891.5)" fill="none" stroke="#000" stroke-linejoin="round" stroke-width="2"/>
    <path id="Trazado_14205" data-name="Trazado 14205" d="M704.9,487.5h-2.3v-4.7h-4.7v4.7H679.2v-4.7h-4.7v4.7h-2.3a4.61,4.61,0,0,0-4.6,4.7v32.7a4.7,4.7,0,0,0,4.7,4.7H705a4.7,4.7,0,0,0,4.7-4.7V492.2a4.847,4.847,0,0,0-4.8-4.7" transform="translate(520.6 1891.5)" fill="none" stroke="#000" stroke-linejoin="round" stroke-width="2"/>
    <path id="Trazado_14206" data-name="Trazado 14206" d="M702.4,525.8H674.7a3.359,3.359,0,0,1-3.2-3.5v-26h34.1v26A3.359,3.359,0,0,1,702.4,525.8Z" transform="translate(520.6 1891.5)" fill="none" stroke="#000" stroke-linejoin="round" stroke-width="2"/>
  </g>
</svg>
