<svg xmlns="http://www.w3.org/2000/svg" width="45.124" height="47.7" viewBox="0 0 45.124 47.7">
  <g id="checklists" transform="translate(-40.966 -28.085)">
    <path id="Trazado_1346" data-name="Trazado 1346" d="M265.946,103.442a.673.673,0,0,1-.312-.075l-10.349-4.99a.715.715,0,0,1-.4-.642V86.572a.723.723,0,0,1,.335-.607.709.709,0,0,1,.647-.035l10.4,4.985a.715.715,0,0,1,.4.642v11.169a.716.716,0,0,1-.335.578.753.753,0,0,1-.381.139Zm-9.657-6.174,8.941,4.3V92.018l-8.941-4.308Z" transform="translate(-191.507 -51.392)" stroke="#000" stroke-width="1"/>
    <path id="Trazado_1347" data-name="Trazado 1347" d="M265.937,48.586a.729.729,0,0,1-.312-.07l-10.35-4.989a.715.715,0,0,1,0-1.288l10.4-4.985a.723.723,0,0,1,.618,0l10.4,4.99a.715.715,0,0,1,.4.647.7.7,0,0,1-.444.642l-10.4,4.985A.739.739,0,0,1,265.937,48.586Zm-8.721-5.705,8.721,4.2,8.726-4.187-8.721-4.2Z" transform="translate(-191.498 -7.706)" stroke="#000" stroke-width="1"/>
    <path id="Trazado_1348" data-name="Trazado 1348" d="M356.425,103.349a.756.756,0,0,1-.381-.11.715.715,0,0,1-.335-.578V91.475a.71.71,0,0,1,.4-.642l10.4-5a.71.71,0,0,1,.688.035.722.722,0,0,1,.335.607V97.643a.716.716,0,0,1-.4.642l-10.39,4.99a.689.689,0,0,1-.312.075Zm.715-11.424v9.57l8.941-4.321V87.616Z" transform="translate(-281.987 -51.299)" stroke="#000" stroke-width="1"/>
    <path id="Trazado_1349" data-name="Trazado 1349" d="M306.494,68.3a.716.716,0,0,1-.277-1.34l10.4-4.985a.716.716,0,0,1,.578,1.288l-10.4,4.985A.77.77,0,0,1,306.494,68.3Z" transform="translate(-237.242 -29.927)" stroke="#000" stroke-width="1"/>
    <path id="Trazado_1350" data-name="Trazado 1350" d="M292.251,146.08a.764.764,0,0,1-.312-.07l-3.061-1.473a.716.716,0,0,1,.525-1.333.659.659,0,0,1,.094.045l3.067,1.473a.717.717,0,0,1-.313,1.358Z" transform="translate(-221.607 -102.797)" stroke="#000" stroke-width="1"/>
    <path id="Trazado_1351" data-name="Trazado 1351" d="M137.352,39.072H124.473a.71.71,0,0,1-.693-.7V31.894a.716.716,0,0,1,.716-.716h3.246a5.308,5.308,0,0,1,9.322.4.716.716,0,0,1-1.282.635,3.881,3.881,0,0,0-6.983,0,.7.7,0,0,1-.642.4h-2.945V37.64h12.14a.716.716,0,0,1,0,1.432Z" transform="translate(-73.864 0)" stroke="#000" stroke-width="1"/>
    <path id="Trazado_1352" data-name="Trazado 1352" d="M73.694,120.281H42.177a.711.711,0,0,1-.71-.71h0V79.477a.71.71,0,0,1,.687-.733h8.479a.716.716,0,0,1,.128,1.426.67.67,0,0,1-.128,0h-7.74v38.7h30.8a2.951,2.951,0,0,0,2.951-2.951h0V95.955a.716.716,0,1,1,1.426-.128.67.67,0,0,1,0,.128V115.9A4.381,4.381,0,0,1,73.694,120.281Z" transform="translate(0 -44.996)" stroke="#000" stroke-width="1"/>
    <path id="Trazado_1353" data-name="Trazado 1353" d="M100.243,229.168h-.029a.711.711,0,0,1-.578-.312l-1.559-2.264a.716.716,0,1,1,1.011-1.015.727.727,0,0,1,.145.206l1.016,1.478,3.367-4.106a.716.716,0,1,1,1.1.907l-3.921,4.846a.733.733,0,0,1-.555.26Z" transform="translate(-50.61 -174.311)" stroke="#000" stroke-width="1"/>
    <path id="Trazado_1354" data-name="Trazado 1354" d="M100.288,298.672h-.029a.729.729,0,0,1-.578-.312L98.122,296.1a.716.716,0,1,1,1.021-1,.75.75,0,0,1,.134.19l1.016,1.478,3.367-4.112a.726.726,0,0,1,1.144.9h0l-3.962,4.846A.716.716,0,0,1,100.288,298.672Z" transform="translate(-50.655 -236.7)" stroke="#000" stroke-width="1"/>
    <path id="Trazado_1355" data-name="Trazado 1355" d="M100.288,367.808h-.029a.707.707,0,0,1-.578-.306l-1.559-2.258a.716.716,0,1,1,1.021-1,.75.75,0,0,1,.134.19l1.016,1.478,3.367-4.112a.716.716,0,1,1,1.1.907l-3.962,4.846a.724.724,0,0,1-.514.26Z" transform="translate(-50.655 -298.72)" stroke="#000" stroke-width="1"/>
    <path id="Trazado_1356" data-name="Trazado 1356" d="M196.332,271.946H186.322a.716.716,0,0,1,0-1.426h10.009a.716.716,0,0,1,0,1.426Z" transform="translate(-129.402 -217.089)" stroke="#000" stroke-width="1"/>
    <path id="Trazado_1357" data-name="Trazado 1357" d="M200.659,334.912H185.775a.716.716,0,0,1,0-1.432h14.883a.716.716,0,1,1,0,1.432Z" transform="translate(-128.854 -273.586)" stroke="#000" stroke-width="1"/>
    <path id="Trazado_1358" data-name="Trazado 1358" d="M201.216,397.9H186.332a.716.716,0,0,1,0-1.426h14.883a.716.716,0,0,1,.128,1.426A.672.672,0,0,1,201.216,397.9Z" transform="translate(-129.411 -330.111)" stroke="#000" stroke-width="1"/>
  </g>
</svg>
