<svg xmlns="http://www.w3.org/2000/svg" width="234.833" height="125.097" viewBox="0 0 234.833 125.097">
  <g id="Grupo_918" data-name="Grupo 918" transform="translate(-471.78 -1998.82)">
    <path id="Trazado_650" data-name="Trazado 650" d="M496.188,2070.871a24.3,24.3,0,0,0-14.692,4.922v-13.866a4.858,4.858,0,0,0-9.716,0v32.966h0v.386a24.408,24.408,0,1,0,24.408-24.409Zm14.531,33.675a17.2,17.2,0,1,1-.1-18.532,3.645,3.645,0,0,1-6.124,3.957,9.9,9.9,0,1,0,.054,10.67,3.649,3.649,0,0,1,6.166,3.9Z" transform="translate(0 4.218)" fill="#ec1c24"/>
    <path id="Trazado_651" data-name="Trazado 651" d="M523.327,2069.833l43.883-14.348a.991.991,0,0,0,.686-.943v-13.394a.984.984,0,0,0-.987-.987H523.027a.984.984,0,0,0-.987.987v27.743A.983.983,0,0,0,523.327,2069.833Z" transform="translate(3.639 2.994)" fill="#ec1c24"/>
    <path id="Trazado_652" data-name="Trazado 652" d="M580.446,2051.307l14.746-4.826a1.011,1.011,0,0,1,1.072.3l15.5,19.121a.986.986,0,0,0,1.1.289l11.507-4.333a1,1,0,0,0,.643-.933v-40.58a.984.984,0,0,0-.987-.986H580.157a.984.984,0,0,0-.986.986v30A.965.965,0,0,0,580.446,2051.307Z" transform="translate(7.776 1.488)" fill="#ec1c24"/>
    <path id="Trazado_653" data-name="Trazado 653" d="M637.59,2056.816l27.9-10.51-.193.193,28.762-10.9a.992.992,0,0,0-.032-1.866l-11.25-3.828a1.006,1.006,0,0,1-.675-.944v-29.159a.984.984,0,0,0-.986-.986H637.247a.984.984,0,0,0-.987.986v56.077A.978.978,0,0,0,637.59,2056.816Z" transform="translate(11.911 0)" fill="#ec1c24"/>
    <path id="Trazado_654" data-name="Trazado 654" d="M588.5,2087.621a13.74,13.74,0,0,0-3.035-.3c-3.872,0-6.359,1.1-7.485,3.3a8.982,8.982,0,0,0-.783,4q0,5.131,3.753,6.585a12.546,12.546,0,0,0,4.5.686q6.4,0,7.721-4.386a10.876,10.876,0,0,0,.365-2.885C593.544,2090.708,591.86,2088.381,588.5,2087.621Z" transform="translate(7.634 6.409)" fill="#ec1c24"/>
    <path id="Trazado_655" data-name="Trazado 655" d="M701.467,2043.164l-87.531,33a.979.979,0,0,1-1.1-.29l-15.7-19.368a.991.991,0,0,0-1.072-.3l-73.353,23.991a.992.992,0,0,0-.687.943v31.368a8.2,8.2,0,0,0,8.2,8.2H682.163a8.2,8.2,0,0,0,8.2-8.2v-52.44a.947.947,0,0,1,.225-.623l11.99-14.7A1,1,0,0,0,701.467,2043.164ZM554.589,2107.7a9,9,0,0,1-6.134,2.047H532.68a1.076,1.076,0,0,1-1.072-1.072v-2.927a1.076,1.076,0,0,1,1.072-1.073H548.4a2.368,2.368,0,0,0,2.435-1.32,1.922,1.922,0,0,0,.182-.815,2,2,0,0,0-1.2-1.9,3.2,3.2,0,0,0-1.415-.3h-8.236q-4.81,0-7.153-3.068a6.86,6.86,0,0,1,.944-9.351,9.049,9.049,0,0,1,6.209-2.069H552a1.074,1.074,0,0,1,1.072,1.072v2.928a1.075,1.075,0,0,1-1.072,1.072H540.23a2.388,2.388,0,0,0-2.435,1.351,2.145,2.145,0,0,0-.182.837,1.994,1.994,0,0,0,1.265,1.9,3.2,3.2,0,0,0,1.351.268h8.236a8.431,8.431,0,0,1,6.971,2.949,6.755,6.755,0,0,1,1.5,4.3A6.548,6.548,0,0,1,554.589,2107.7Zm19.518-17.845a1.075,1.075,0,0,1-1.072,1.072h-4a1.076,1.076,0,0,0-1.072,1.073v16.655a1.076,1.076,0,0,1-1.072,1.072h-3.56a1.076,1.076,0,0,1-1.072-1.072V2092a1.076,1.076,0,0,0-1.072-1.073h-3.678a1.075,1.075,0,0,1-1.072-1.072v-2.928a1.075,1.075,0,0,1,1.072-1.072h15.55a1.075,1.075,0,0,1,1.073,1.072v2.928Zm24.011,18.242a17.284,17.284,0,0,1-8.955,2.166q-6.515,0-10.338-3.487a11.557,11.557,0,0,1-3.635-8.954q0-6.643,4.933-10.005a15.857,15.857,0,0,1,9.04-2.468q7.094,0,10.971,3.7a11.568,11.568,0,0,1,3.421,8.773Q603.555,2104.855,598.118,2108.1Zm31.271-18.242a1.075,1.075,0,0,1-1.072,1.072H616.832c-1.727,0-3.035.966-3.936,2.885a10.033,10.033,0,0,0-.837,4.15,7.6,7.6,0,0,0,1.8,5.438,4.03,4.03,0,0,0,2.971,1.265h11.486a1.075,1.075,0,0,1,1.072,1.072v2.927a1.076,1.076,0,0,1-1.072,1.073H616.146a8.9,8.9,0,0,1-7.721-4.087,13.648,13.648,0,0,1-2.37-8.053,12.854,12.854,0,0,1,2.617-8.236,9.177,9.177,0,0,1,7.485-3.518h12.172a1.076,1.076,0,0,1,1.072,1.073v2.938Zm24.429,19.893H648.6a1.124,1.124,0,0,1-.74-.289l-8.472-7.926a.565.565,0,0,0-.954.418v6.724a1.076,1.076,0,0,1-1.072,1.072H633.83a1.076,1.076,0,0,1-1.073-1.072V2086.94a1.076,1.076,0,0,1,1.073-1.072h3.528a1.075,1.075,0,0,1,1.072,1.072v6.777a.564.564,0,0,0,.954.408l8.472-7.968a1.054,1.054,0,0,1,.74-.289h4.611a1.074,1.074,0,0,1,.719,1.876l-9.952,8.987a1.078,1.078,0,0,0,0,1.6l10.563,9.556A1.068,1.068,0,0,1,653.819,2109.75Zm26.9-19.893a1.075,1.075,0,0,1-1.072,1.072H664.018a2.387,2.387,0,0,0-2.434,1.351,2.15,2.15,0,0,0-.182.837,1.971,1.971,0,0,0,1.266,1.888,3.213,3.213,0,0,0,1.351.268h8.236a8.431,8.431,0,0,1,6.971,2.948,6.755,6.755,0,0,1,1.5,4.3,6.56,6.56,0,0,1-2.349,5.169,9,9,0,0,1-6.134,2.048H659.589a1.076,1.076,0,0,1-1.073-1.073v-2.927a1.075,1.075,0,0,1,1.073-1.072h12.59a2.37,2.37,0,0,0,2.434-1.32,1.932,1.932,0,0,0,.182-.816,1.974,1.974,0,0,0-1.2-1.887,3.2,3.2,0,0,0-1.415-.3h-8.236q-4.81,0-7.153-3.068a6.86,6.86,0,0,1,.944-9.351,9.049,9.049,0,0,1,6.209-2.069h15.69a1.075,1.075,0,0,1,1.072,1.072v2.928Z" transform="translate(3.638 3.207)" fill="#ec1c24"/>
  </g>
</svg>
