<svg xmlns="http://www.w3.org/2000/svg" width="39.806" height="41" viewBox="0 0 39.806 41">
  <g id="Grupo_1021" data-name="Grupo 1021" transform="translate(-1131.8 -2377.2)">
    <g id="Grupo_1010" data-name="Grupo 1010" transform="translate(520.6 1891.5)">
      <path id="Trazado_14207" data-name="Trazado 14207" d="M637.9,490.1h5.5a2.671,2.671,0,0,0-2.8-2.4,2.575,2.575,0,0,0-2.7,2.4m3.1,26.5v7.7a.1.1,0,0,0,.1.1,9.972,9.972,0,0,0,7.7-7.7v-.1c-.7-.1-7.1-.1-7.8,0Zm-27.9,7.7h25.7a.1.1,0,0,0,.1-.1v-7.4a2.285,2.285,0,0,1,2-2.3l8-.1h0V492.2a.1.1,0,0,0-.1-.1H638a.1.1,0,0,0-.1.1v10.2a1.846,1.846,0,0,0,1.6,1.9,1.817,1.817,0,0,0,2.1-1.8V496a.1.1,0,0,1,.1-.1h2.4V501c.1,4.2-.9,5.8-4.1,5.8-3.3,0-4.5-2.3-4.5-5.4v-9.1l-1.2-.1h-21a.1.1,0,0,0-.1.1l-.1,32Zm26.2,2.4H611.2V490.2h24.1a5.041,5.041,0,0,1,5.2-4.5,4.973,4.973,0,0,1,5.2,4.5H651v24.7a11.549,11.549,0,0,1-11.7,11.8"/>
      <path id="Trazado_14208" data-name="Trazado 14208" d="M629.2,500.8H618.7a1.155,1.155,0,0,1-1.2-1.2h0a1.155,1.155,0,0,1,1.2-1.2h10.5a1.155,1.155,0,0,1,1.2,1.2h0A1.155,1.155,0,0,1,629.2,500.8Z"/>
      <path id="Trazado_14209" data-name="Trazado 14209" d="M629.2,509.1H618.7a1.155,1.155,0,0,1-1.2-1.2h0a1.155,1.155,0,0,1,1.2-1.2h10.5a1.155,1.155,0,0,1,1.2,1.2h0A1.155,1.155,0,0,1,629.2,509.1Z"/>
      <path id="Trazado_14210" data-name="Trazado 14210" d="M629.2,518.5H618.7a1.155,1.155,0,0,1-1.2-1.2h0a1.155,1.155,0,0,1,1.2-1.2h10.5a1.155,1.155,0,0,1,1.2,1.2h0A1.155,1.155,0,0,1,629.2,518.5Z"/>
    </g>
  </g>
</svg>
