<svg xmlns="http://www.w3.org/2000/svg" width="62.922" height="62.9" viewBox="0 0 62.922 62.9">
  <g id="Grupo_1026" data-name="Grupo 1026" transform="translate(-1109.789 -2265.5)">
    <path id="Trazado_14173" data-name="Trazado 14173" d="M607.2,379.2H603a2.051,2.051,0,0,0-2.1,2.1v4.2a2.051,2.051,0,0,0,2.1,2.1h4.2a2.051,2.051,0,0,0,2.1-2.1v-4.2a2.182,2.182,0,0,0-2.1-2.1m-4.2,2.1h4.2v4.2H603Z" transform="translate(520.6 1891.5)"/>
    <path id="Trazado_14174" data-name="Trazado 14174" d="M612.3,387h27.2a1,1,0,0,0,0-2H612.3a1,1,0,0,0-1,1,1.075,1.075,0,0,0,1,1" transform="translate(520.6 1891.5)"/>
    <path id="Trazado_14175" data-name="Trazado 14175" d="M634.9,398.3h4.2a1,1,0,0,0,0-2h-4.2a1,1,0,0,0-1,1,.942.942,0,0,0,1,1" transform="translate(520.6 1891.5)"/>
    <path id="Trazado_14176" data-name="Trazado 14176" d="M604.3,422.8h4.2a1,1,0,0,0,0-2h-4.2a1,1,0,0,0-1,1,.945.945,0,0,0,1,1" transform="translate(520.6 1891.5)"/>
    <path id="Trazado_14177" data-name="Trazado 14177" d="M604.3,419.1h4.2a1,1,0,0,0,0-2h-4.2a1,1,0,0,0,0,2" transform="translate(520.6 1891.5)"/>
    <path id="Trazado_14178" data-name="Trazado 14178" d="M629.5,403.3h9.6a1,1,0,0,0,0-2h-9.6a1,1,0,0,0-1,1,.945.945,0,0,0,1,1" transform="translate(520.6 1891.5)"/>
    <path id="Trazado_14179" data-name="Trazado 14179" d="M612.3,382h27.2a1,1,0,0,0,0-2H612.3a1,1,0,0,0-1,1,1.075,1.075,0,0,0,1,1" transform="translate(520.6 1891.5)"/>
    <path id="Trazado_14180" data-name="Trazado 14180" d="M611.3,428.5H604a1,1,0,0,0,0,2h7.3a1,1,0,0,0,0-2" transform="translate(520.6 1891.5)"/>
    <path id="Trazado_14181" data-name="Trazado 14181" d="M630.7,428.5H619.2a1,1,0,0,0,0,2h11.5a1,1,0,0,0,1-1,1.075,1.075,0,0,0-1-1" transform="translate(520.6 1891.5)"/>
    <path id="Trazado_14182" data-name="Trazado 14182" d="M623.9,391.4H612.4a1,1,0,0,0,0,2h11.5a1,1,0,0,0,1-1,1.075,1.075,0,0,0-1-1" transform="translate(520.6 1891.5)"/>
    <path id="Trazado_14183" data-name="Trazado 14183" d="M639.1,391.4H627.6a1,1,0,0,0,0,2h11.5a1,1,0,0,0,1-1,1.075,1.075,0,0,0-1-1" transform="translate(520.6 1891.5)"/>
    <path id="Trazado_14184" data-name="Trazado 14184" d="M650.9,415.5l-5.1-4V389.3c0-.8.1-5.5.2-9.4a5.763,5.763,0,0,0-5.8-5.9H601.8a6.274,6.274,0,0,0-6.3,6.3v16.6l-5,3.9a3.355,3.355,0,0,0-1.3,2.7,3.076,3.076,0,0,0,1.2,2.3l5.1,4v20.8a6.274,6.274,0,0,0,6.3,6.3h37.7a6.274,6.274,0,0,0,6.3-6.3v-6.1l5-3.9a3.355,3.355,0,0,0,1.3-2.7,3.132,3.132,0,0,0-1.2-2.4m-59.5-12.2a1.234,1.234,0,0,1,.4-.8l9.4-7.3a.844.844,0,0,1,.7-.2.9.9,0,0,1,.5.1,1.1,1.1,0,0,1,.6,1v3.1a1,1,0,0,0,1,1h18.9a1,1,0,0,1,1,1v4.2a1,1,0,0,1-1,1H604a1,1,0,0,0-1,1v3.1a1.11,1.11,0,0,1-1.1,1.1,1.854,1.854,0,0,1-.7-.2l-9.4-7.3c-.3-.1-.4-.4-.4-.8m52.4,27.2a4.332,4.332,0,0,1-4.3,4.3H601.9a4.332,4.332,0,0,1-4.3-4.3v-19c0-.1.1-.1.1,0l2,1.5a3.5,3.5,0,0,0,3.4.5,3.148,3.148,0,0,0,1.9-2.9v-2a.1.1,0,0,1,.1-.1h17.7a3.2,3.2,0,0,0,3.2-3.1v-4.1a3.159,3.159,0,0,0-3.2-3.2H605.1a.1.1,0,0,1-.1-.1v-1.8a3.223,3.223,0,0,0-5.2-2.7l-2.1,1.6h-.1V380.3a4.268,4.268,0,0,1,4.3-4.3h37.6a4.1,4.1,0,0,1,4.2,4.2v29.4c0,.1-.1.1-.1,0l-2-1.5a3.5,3.5,0,0,0-3.4-.5,3.148,3.148,0,0,0-1.9,2.9v2a.1.1,0,0,1-.1.1H618.5a3.159,3.159,0,0,0-3.2,3.2v4.6A2.667,2.667,0,0,0,618,423h18.2a.1.1,0,0,1,.1.1v2a3.159,3.159,0,0,0,3.2,3.2,3.057,3.057,0,0,0,2-.7l2.1-1.6a.1.1,0,0,1,.1.1v4.4Zm5.8-11.6-9.4,7.3a1,1,0,0,1-1.5-.2,1.446,1.446,0,0,1-.2-.7v-3.1a1,1,0,0,0-1-1H618.6a1,1,0,0,1-1-1V416a1,1,0,0,1,1-1h18.9a1,1,0,0,0,1-1v-3.1a1.11,1.11,0,0,1,1.1-1.1,1.854,1.854,0,0,1,.7.2l9.4,7.3a1.1,1.1,0,0,1,.2,1.5.368.368,0,0,0-.3.1Z" transform="translate(520.6 1891.5)"/>
  </g>
</svg>
