<svg xmlns="http://www.w3.org/2000/svg" width="150.357" height="80.096" viewBox="0 0 150.357 80.096">
  <g id="Grupo_495" data-name="Grupo 495" transform="translate(-471.78 -1998.82)">
    <path id="Trazado_650" data-name="Trazado 650" d="M487.408,2065.906a15.558,15.558,0,0,0-9.407,3.152v-8.878a3.111,3.111,0,0,0-6.221,0v21.107h0v.248a15.628,15.628,0,1,0,15.628-15.628Zm9.3,21.561a11.015,11.015,0,1,1-.062-11.865,2.334,2.334,0,0,1-3.921,2.534,6.341,6.341,0,1,0,.034,6.832,2.336,2.336,0,0,1,3.948,2.5Z" transform="translate(0 -18.253)" fill="#fff"/>
    <path id="Trazado_651" data-name="Trazado 651" d="M522.864,2059.159l28.1-9.187a.635.635,0,0,0,.439-.6v-8.576a.63.63,0,0,0-.632-.632h-28.1a.63.63,0,0,0-.632.632v17.763A.629.629,0,0,0,522.864,2059.159Z" transform="translate(-15.75 -12.955)" fill="#fff"/>
    <path id="Trazado_652" data-name="Trazado 652" d="M579.987,2039.814l9.441-3.09a.648.648,0,0,1,.686.193l9.922,12.243a.63.63,0,0,0,.707.185l7.367-2.774a.639.639,0,0,0,.412-.6v-25.983a.63.63,0,0,0-.632-.631H579.8a.63.63,0,0,0-.632.631V2039.2A.618.618,0,0,0,579.987,2039.814Z" transform="translate(-33.652 -6.436)" fill="#fff"/>
    <path id="Trazado_653" data-name="Trazado 653" d="M637.111,2035.953l17.866-6.729-.124.124,18.416-6.976a.635.635,0,0,0-.021-1.195l-7.2-2.451a.645.645,0,0,1-.433-.6v-18.67a.63.63,0,0,0-.631-.631h-28.09a.63.63,0,0,0-.632.631v35.9A.626.626,0,0,0,637.111,2035.953Z" transform="translate(-51.542 0)" fill="#fff"/>
    <path id="Trazado_654" data-name="Trazado 654" d="M584.437,2087.512a8.819,8.819,0,0,0-1.943-.192c-2.479,0-4.072.707-4.793,2.115a5.751,5.751,0,0,0-.5,2.561q0,3.285,2.4,4.217a8.042,8.042,0,0,0,2.884.439q4.1,0,4.943-2.809a6.965,6.965,0,0,0,.234-1.847C587.664,2089.489,586.586,2088,584.437,2087.512Z" transform="translate(-33.035 -27.732)" fill="#fff"/>
    <path id="Trazado_655" data-name="Trazado 655" d="M636.915,2043.14l-56.043,21.128a.626.626,0,0,1-.707-.186l-10.052-12.4a.635.635,0,0,0-.687-.192l-46.966,15.36a.635.635,0,0,0-.44.6v20.084a5.253,5.253,0,0,0,5.253,5.253h97.283a5.253,5.253,0,0,0,5.253-5.253v-33.576a.606.606,0,0,1,.144-.4l7.677-9.414A.64.64,0,0,0,636.915,2043.14Zm-94.042,41.323a5.766,5.766,0,0,1-3.928,1.311h-10.1a.688.688,0,0,1-.687-.686v-1.875a.689.689,0,0,1,.687-.687h10.066a1.516,1.516,0,0,0,1.559-.845,1.229,1.229,0,0,0,.117-.521,1.28,1.28,0,0,0-.769-1.215,2.05,2.05,0,0,0-.906-.192h-5.273a5.393,5.393,0,0,1-4.58-1.964,4.392,4.392,0,0,1,.6-5.987,5.794,5.794,0,0,1,3.976-1.325h7.581a.688.688,0,0,1,.686.686v1.875a.689.689,0,0,1-.686.686h-7.539a1.529,1.529,0,0,0-1.559.865,1.375,1.375,0,0,0-.117.536,1.276,1.276,0,0,0,.81,1.216,2.046,2.046,0,0,0,.865.172h5.273a5.4,5.4,0,0,1,4.463,1.888,4.325,4.325,0,0,1,.961,2.753A4.193,4.193,0,0,1,542.873,2084.463Zm12.5-11.426a.688.688,0,0,1-.687.686h-2.561a.689.689,0,0,0-.687.687v10.664a.689.689,0,0,1-.687.686h-2.28a.689.689,0,0,1-.687-.686V2074.41a.689.689,0,0,0-.687-.687h-2.355a.688.688,0,0,1-.687-.686v-1.875a.689.689,0,0,1,.687-.686H554.7a.689.689,0,0,1,.687.686v1.875Zm15.374,11.68a11.067,11.067,0,0,1-5.733,1.387,9.43,9.43,0,0,1-6.619-2.232,7.4,7.4,0,0,1-2.328-5.733,7.237,7.237,0,0,1,3.159-6.406,10.151,10.151,0,0,1,5.788-1.58q4.542,0,7.024,2.368a7.406,7.406,0,0,1,2.19,5.617A7.1,7.1,0,0,1,570.744,2084.716Zm20.022-11.68a.688.688,0,0,1-.687.686h-7.354a2.729,2.729,0,0,0-2.52,1.847,6.422,6.422,0,0,0-.536,2.657,4.866,4.866,0,0,0,1.154,3.482,2.58,2.58,0,0,0,1.9.81h7.354a.688.688,0,0,1,.687.687v1.874a.689.689,0,0,1-.687.687h-7.793a5.7,5.7,0,0,1-4.944-2.617,8.738,8.738,0,0,1-1.518-5.156,8.23,8.23,0,0,1,1.676-5.273,5.877,5.877,0,0,1,4.793-2.252h7.793a.689.689,0,0,1,.687.687v1.881Zm15.641,12.737h-3.344a.719.719,0,0,1-.474-.185l-5.425-5.075a.362.362,0,0,0-.611.268v4.305a.688.688,0,0,1-.686.686h-2.259a.689.689,0,0,1-.687-.686v-13.918a.689.689,0,0,1,.687-.686h2.259a.688.688,0,0,1,.686.686v4.339a.361.361,0,0,0,.611.261l5.425-5.1a.674.674,0,0,1,.474-.185h2.952a.687.687,0,0,1,.46,1.2l-6.372,5.754a.69.69,0,0,0,0,1.023l6.763,6.118A.684.684,0,0,1,606.407,2085.773Zm17.221-12.737a.688.688,0,0,1-.687.686h-10a1.529,1.529,0,0,0-1.559.865,1.376,1.376,0,0,0-.117.536,1.262,1.262,0,0,0,.81,1.209,2.056,2.056,0,0,0,.865.172h5.273a5.4,5.4,0,0,1,4.463,1.888,4.325,4.325,0,0,1,.961,2.754,4.2,4.2,0,0,1-1.5,3.31,5.764,5.764,0,0,1-3.928,1.312h-8.1a.689.689,0,0,1-.687-.687v-1.874a.689.689,0,0,1,.687-.687h8.061a1.517,1.517,0,0,0,1.559-.845,1.235,1.235,0,0,0,.117-.522,1.264,1.264,0,0,0-.769-1.208,2.049,2.049,0,0,0-.906-.192h-5.273a5.393,5.393,0,0,1-4.58-1.964,4.392,4.392,0,0,1,.6-5.987,5.8,5.8,0,0,1,3.976-1.325h10.046a.688.688,0,0,1,.687.686v1.875Z" transform="translate(-15.743 -13.875)" fill="#fff"/>
  </g>
</svg>
