<svg xmlns="http://www.w3.org/2000/svg" width="45.3" height="49" viewBox="0 0 45.3 49">
  <g id="Grupo_1017" data-name="Grupo 1017" transform="translate(-1354.6 -2374.6)">
    <g id="Grupo_1009" data-name="Grupo 1009" transform="translate(520.6 1891.5)">
      <path id="Trazado_14203" data-name="Trazado 14203" d="M865.4,532.1H847.9a12.412,12.412,0,0,1-2.7-.3,12.938,12.938,0,0,1-2.6-.8,14.146,14.146,0,0,1-2.4-1.3c-.7-.5-1.4-1.1-2.1-1.7a11.984,11.984,0,0,1-1.7-2.1c-.5-.8-.9-1.6-1.3-2.4a19.757,19.757,0,0,1-.8-2.6,12.412,12.412,0,0,1-.3-2.7V497a12.412,12.412,0,0,1,.3-2.7,12.94,12.94,0,0,1,.8-2.6,14.144,14.144,0,0,1,1.3-2.4c.5-.7,1.1-1.4,1.7-2.1a11.983,11.983,0,0,1,2.1-1.7,13.573,13.573,0,0,1,2.4-1.3,19.752,19.752,0,0,1,2.6-.8,12.412,12.412,0,0,1,2.7-.3h17.5a12.414,12.414,0,0,1,2.7.3,12.936,12.936,0,0,1,2.6.8,14.146,14.146,0,0,1,2.4,1.3c.7.5,1.4,1.1,2.1,1.7a11.985,11.985,0,0,1,1.7,2.1,18.338,18.338,0,0,1,1.3,2.4,19.756,19.756,0,0,1,.8,2.6,12.412,12.412,0,0,1,.3,2.7v21.2a12.412,12.412,0,0,1-.3,2.7,12.938,12.938,0,0,1-.8,2.6,14.146,14.146,0,0,1-1.3,2.4c-.5.7-1.1,1.4-1.7,2.1a11.984,11.984,0,0,1-2.1,1.7,13.571,13.571,0,0,1-2.4,1.3,19.757,19.757,0,0,1-2.6.8A12.412,12.412,0,0,1,865.4,532.1Zm-17.5-46.2a16.351,16.351,0,0,0-2.2.2,16.549,16.549,0,0,0-2.1.6,11.162,11.162,0,0,0-5,4.1,8.706,8.706,0,0,0-1,1.9,8.3,8.3,0,0,0-.6,2.1,16.356,16.356,0,0,0-.2,2.2v21.2a16.346,16.346,0,0,0,.2,2.2,16.553,16.553,0,0,0,.6,2.1,11.4,11.4,0,0,0,1,1.9,11.432,11.432,0,0,0,3.1,3.1,8.7,8.7,0,0,0,1.9,1,8.3,8.3,0,0,0,2.1.6,16.356,16.356,0,0,0,2.2.2h17.5a16.346,16.346,0,0,0,2.2-.2,16.553,16.553,0,0,0,2.1-.6,11.4,11.4,0,0,0,1.9-1,11.432,11.432,0,0,0,3.1-3.1,8.7,8.7,0,0,0,1-1.9,8.3,8.3,0,0,0,.6-2.1,16.356,16.356,0,0,0,.2-2.2V497a16.346,16.346,0,0,0-.2-2.2,16.557,16.557,0,0,0-.6-2.1,11.4,11.4,0,0,0-1-1.9,11.432,11.432,0,0,0-3.1-3.1,8.706,8.706,0,0,0-1.9-1,8.3,8.3,0,0,0-2.1-.6,16.351,16.351,0,0,0-2.2-.2H847.9Z"/>
    </g>
    <path id="Trazado_14204" data-name="Trazado 14204" d="M857.1,517.8a3.653,3.653,0,1,0,3.8,3.6,3.777,3.777,0,0,0-3.8-3.6m2.1-26.3h-3.7a3.262,3.262,0,0,0-3.2,3.6l2.1,19.3H860l2.5-19.2A3.43,3.43,0,0,0,859.2,491.5Z" transform="translate(520.6 1891.5)"/>
  </g>
</svg>
