<svg xmlns="http://www.w3.org/2000/svg" width="43.513" height="46.757" viewBox="0 0 43.513 46.757">
  <g id="Grupo_1022" data-name="Grupo 1022" transform="translate(-1075.05 -2373.75)">
    <path id="Trazado_14193" data-name="Trazado 14193" d="M596.4,518.8a2.263,2.263,0,0,1-2.3,2.3h-5.4V487.9a3.9,3.9,0,0,1,7.8,0v30.9Zm-9.3,6.9-.9-1.2a.864.864,0,0,0-.6-.3.713.713,0,0,0-.6.3l-1.7,2.3-1.7-2.3a.864.864,0,0,0-.6-.3.713.713,0,0,0-.6.3l-1.7,2.3-1.7-2.3a.864.864,0,0,0-.6-.3.713.713,0,0,0-.6.3l-1.7,2.3-1.7-2.3a.864.864,0,0,0-.6-.3.713.713,0,0,0-.6.3l-1.7,2.3-1.7-2.3a.864.864,0,0,0-.6-.3.713.713,0,0,0-.6.3l-1.7,2.3-1.7-2.3a.864.864,0,0,0-.6-.3.713.713,0,0,0-.6.3l-1.7,2.3-1.7-2.3a.864.864,0,0,0-.6-.3.713.713,0,0,0-.6.3l-.9,1.2V487.9a3.9,3.9,0,0,1,3.9-3.9H589a5.521,5.521,0,0,0-1.6,3.9v37.8Zm5.4-43.2H560.1a5.378,5.378,0,0,0-5.4,5.4V528a.752.752,0,0,0,.5.7.807.807,0,0,0,.9-.3l1.7-2.3,1.7,2.3a.864.864,0,0,0,.6.3.713.713,0,0,0,.6-.3l1.7-2.3,1.7,2.3a.864.864,0,0,0,.6.3.713.713,0,0,0,.6-.3l1.7-2.3,1.7,2.3a.864.864,0,0,0,.6.3.713.713,0,0,0,.6-.3l1.7-2.3,1.7,2.3a.864.864,0,0,0,.6.3.713.713,0,0,0,.6-.3l1.7-2.3,1.7,2.3a.864.864,0,0,0,.6.3.713.713,0,0,0,.6-.3l1.7-2.3,1.7,2.3a.864.864,0,0,0,.6.3.713.713,0,0,0,.6-.3l1.7-2.3,1.7,2.3a.713.713,0,0,0,.6.3h.2a.752.752,0,0,0,.5-.7v-5.4h5.4a3.9,3.9,0,0,0,3.9-3.9V487.9a5.149,5.149,0,0,0-5.2-5.4" transform="translate(520.6 1891.5)"/>
    <path id="Trazado_14194" data-name="Trazado 14194" d="M596.4,518.8a2.263,2.263,0,0,1-2.3,2.3h-5.4V487.9a3.9,3.9,0,0,1,7.8,0v30.9Zm-9.3,6.9-.9-1.2a.864.864,0,0,0-.6-.3.713.713,0,0,0-.6.3l-1.7,2.3-1.7-2.3a.864.864,0,0,0-.6-.3.713.713,0,0,0-.6.3l-1.7,2.3-1.7-2.3a.864.864,0,0,0-.6-.3.713.713,0,0,0-.6.3l-1.7,2.3-1.7-2.3a.864.864,0,0,0-.6-.3.713.713,0,0,0-.6.3l-1.7,2.3-1.7-2.3a.864.864,0,0,0-.6-.3.713.713,0,0,0-.6.3l-1.7,2.3-1.7-2.3a.864.864,0,0,0-.6-.3.713.713,0,0,0-.6.3l-1.7,2.3-1.7-2.3a.864.864,0,0,0-.6-.3.713.713,0,0,0-.6.3l-.9,1.2V487.9a3.9,3.9,0,0,1,3.9-3.9H589a5.521,5.521,0,0,0-1.6,3.9v37.8Zm5.4-43.2H560.1a5.378,5.378,0,0,0-5.4,5.4V528a.752.752,0,0,0,.5.7.807.807,0,0,0,.9-.3l1.7-2.3,1.7,2.3a.864.864,0,0,0,.6.3.713.713,0,0,0,.6-.3l1.7-2.3,1.7,2.3a.864.864,0,0,0,.6.3.713.713,0,0,0,.6-.3l1.7-2.3,1.7,2.3a.864.864,0,0,0,.6.3.713.713,0,0,0,.6-.3l1.7-2.3,1.7,2.3a.864.864,0,0,0,.6.3.713.713,0,0,0,.6-.3l1.7-2.3,1.7,2.3a.864.864,0,0,0,.6.3.713.713,0,0,0,.6-.3l1.7-2.3,1.7,2.3a.864.864,0,0,0,.6.3.713.713,0,0,0,.6-.3l1.7-2.3,1.7,2.3a.713.713,0,0,0,.6.3h.2a.752.752,0,0,0,.5-.7v-5.4h5.4a3.9,3.9,0,0,0,3.9-3.9V487.9A5.149,5.149,0,0,0,592.5,482.5Z" transform="translate(520.6 1891.5)" fill="none" stroke="#000" stroke-width="0.5"/>
    <rect id="Rectángulo_278" data-name="Rectángulo 278" width="9.3" height="1.5" transform="translate(1081.5 2398.699)"/>
    <rect id="Rectángulo_279" data-name="Rectángulo 279" width="9.3" height="1.5" transform="translate(1081.5 2398.699)" fill="none" stroke="#000" stroke-linecap="round" stroke-width="0.5"/>
    <rect id="Rectángulo_280" data-name="Rectángulo 280" width="3.1" height="1.5" transform="translate(1092.299 2398.699)"/>
    <rect id="Rectángulo_281" data-name="Rectángulo 281" width="3.1" height="1.5" transform="translate(1092.299 2398.699)" fill="none" stroke="#000" stroke-linecap="round" stroke-width="0.5"/>
    <rect id="Rectángulo_282" data-name="Rectángulo 282" width="6.2" height="1.5" transform="translate(1096.9 2398.699)"/>
    <rect id="Rectángulo_283" data-name="Rectángulo 283" width="6.2" height="1.5" transform="translate(1096.9 2398.699)" fill="none" stroke="#000" stroke-linecap="round" stroke-width="0.5"/>
    <rect id="Rectángulo_284" data-name="Rectángulo 284" width="6.2" height="1.5" transform="translate(1081.5 2403.301)"/>
    <rect id="Rectángulo_285" data-name="Rectángulo 285" width="6.2" height="1.5" transform="translate(1081.5 2403.301)" fill="none" stroke="#000" stroke-linecap="round" stroke-width="0.5"/>
    <rect id="Rectángulo_286" data-name="Rectángulo 286" width="6.2" height="1.5" transform="translate(1089.199 2403.301)"/>
    <rect id="Rectángulo_287" data-name="Rectángulo 287" width="6.2" height="1.5" transform="translate(1089.199 2403.301)" fill="none" stroke="#000" stroke-linecap="round" stroke-width="0.5"/>
    <rect id="Rectángulo_288" data-name="Rectángulo 288" width="1.5" height="1.5" transform="translate(1096.9 2403.301)"/>
    <rect id="Rectángulo_289" data-name="Rectángulo 289" width="1.5" height="1.5" transform="translate(1096.9 2403.301)" fill="none" stroke="#000" stroke-linecap="round" stroke-width="0.5"/>
    <rect id="Rectángulo_290" data-name="Rectángulo 290" width="3.1" height="1.5" transform="translate(1100 2403.301)"/>
    <rect id="Rectángulo_291" data-name="Rectángulo 291" width="3.1" height="1.5" transform="translate(1100 2403.301)" fill="none" stroke="#000" stroke-linecap="round" stroke-width="0.5"/>
    <rect id="Rectángulo_292" data-name="Rectángulo 292" width="9.3" height="1.5" transform="translate(1081.5 2408)"/>
    <rect id="Rectángulo_293" data-name="Rectángulo 293" width="9.3" height="1.5" transform="translate(1081.5 2408)" fill="none" stroke="#000" stroke-linecap="round" stroke-width="0.5"/>
    <rect id="Rectángulo_294" data-name="Rectángulo 294" width="4.6" height="1.5" transform="translate(1092.299 2408)"/>
    <rect id="Rectángulo_295" data-name="Rectángulo 295" width="4.6" height="1.5" transform="translate(1092.299 2408)" fill="none" stroke="#000" stroke-linecap="round" stroke-width="0.5"/>
    <rect id="Rectángulo_296" data-name="Rectángulo 296" width="4.6" height="1.5" transform="translate(1098.5 2408)"/>
    <rect id="Rectángulo_297" data-name="Rectángulo 297" width="4.6" height="1.5" transform="translate(1098.5 2408)" fill="none" stroke="#000" stroke-linecap="round" stroke-width="0.5"/>
    <path id="Trazado_14195" data-name="Trazado 14195" d="M571.7,496a.645.645,0,0,1-.6-.6h-1.2a1.743,1.743,0,0,0,1.2,1.7v.7h1.2v-.7a1.948,1.948,0,0,0,1.2-1.7c0-1-.9-1.5-1.6-1.8-.5-.3-.9-.5-.9-.7a.6.6,0,1,1,1.2,0h1.2a1.743,1.743,0,0,0-1.2-1.7v-.7H571v.7a1.948,1.948,0,0,0-1.2,1.7c0,1,.9,1.5,1.6,1.8.5.3.9.5.9.7a.576.576,0,0,1-.6.6" transform="translate(520.6 1891.5)"/>
    <path id="Trazado_14196" data-name="Trazado 14196" d="M571.7,496a.645.645,0,0,1-.6-.6h-1.2a1.743,1.743,0,0,0,1.2,1.7v.7h1.2v-.7a1.948,1.948,0,0,0,1.2-1.7c0-1-.9-1.5-1.6-1.8-.5-.3-.9-.5-.9-.7a.6.6,0,1,1,1.2,0h1.2a1.743,1.743,0,0,0-1.2-1.7v-.7H571v.7a1.948,1.948,0,0,0-1.2,1.7c0,1,.9,1.5,1.6,1.8.5.3.9.5.9.7A.576.576,0,0,1,571.7,496Z" transform="translate(520.6 1891.5)" fill="none" stroke="#000" stroke-width="0.5"/>
    <path id="Trazado_14197" data-name="Trazado 14197" d="M571.7,488.7a5.4,5.4,0,1,1-5.4,5.4,5.378,5.378,0,0,1,5.4-5.4m0,12.3a6.9,6.9,0,1,0-6.9-6.9,6.914,6.914,0,0,0,6.9,6.9" transform="translate(520.6 1891.5)"/>
    <path id="Trazado_14198" data-name="Trazado 14198" d="M571.7,488.7a5.4,5.4,0,1,1-5.4,5.4A5.378,5.378,0,0,1,571.7,488.7Zm0,12.3a6.9,6.9,0,1,0-6.9-6.9A6.914,6.914,0,0,0,571.7,501Z" transform="translate(520.6 1891.5)" fill="none" stroke="#000" stroke-width="0.5"/>
  </g>
</svg>
