<svg xmlns="http://www.w3.org/2000/svg" width="73.308" height="39.051" viewBox="0 0 73.308 39.051">
  <g id="Grupo_246" data-name="Grupo 246" transform="translate(-471.78 -1998.82)">
    <path id="Trazado_650" data-name="Trazado 650" d="M479.4,2061.378a7.585,7.585,0,0,0-4.586,1.537v-4.329a1.517,1.517,0,0,0-3.033,0v10.291h0V2069a7.619,7.619,0,1,0,7.62-7.62Zm4.536,10.512a5.37,5.37,0,1,1-.03-5.785,1.138,1.138,0,1,1-1.912,1.235,3.092,3.092,0,1,0,.017,3.331,1.139,1.139,0,0,1,1.925,1.219Z" transform="translate(0 -38.749)" fill="#fff"/>
    <path id="Trazado_651" data-name="Trazado 651" d="M522.442,2049.423l13.7-4.479a.309.309,0,0,0,.214-.294v-4.181a.307.307,0,0,0-.308-.308h-13.7a.307.307,0,0,0-.308.308v8.661A.307.307,0,0,0,522.442,2049.423Z" transform="translate(-33.434 -27.501)" fill="#fff"/>
    <path id="Trazado_652" data-name="Trazado 652" d="M579.568,2029.333l4.6-1.506a.316.316,0,0,1,.335.094l4.838,5.969a.308.308,0,0,0,.345.09l3.592-1.353a.312.312,0,0,0,.2-.291v-12.668a.307.307,0,0,0-.308-.308h-13.7a.307.307,0,0,0-.308.308v9.364A.3.3,0,0,0,579.568,2029.333Z" transform="translate(-71.438 -13.664)" fill="#fff"/>
    <path id="Trazado_653" data-name="Trazado 653" d="M636.675,2016.924l8.711-3.281-.06.06,8.979-3.4a.31.31,0,0,0-.01-.583l-3.512-1.2a.314.314,0,0,1-.211-.295v-9.1a.307.307,0,0,0-.308-.308h-13.7a.307.307,0,0,0-.308.308v17.505A.305.305,0,0,0,636.675,2016.924Z" transform="translate(-109.416)" fill="#fff"/>
    <path id="Trazado_654" data-name="Trazado 654" d="M580.729,2087.414a4.3,4.3,0,0,0-.947-.094c-1.209,0-1.985.345-2.337,1.031a2.8,2.8,0,0,0-.244,1.249,1.952,1.952,0,0,0,1.172,2.056,3.915,3.915,0,0,0,1.406.214q2,0,2.41-1.369a3.4,3.4,0,0,0,.114-.9A1.96,1.96,0,0,0,580.729,2087.414Z" transform="translate(-70.128 -58.873)" fill="#fff"/>
    <path id="Trazado_655" data-name="Trazado 655" d="M578.038,2043.118l-27.324,10.3a.306.306,0,0,1-.345-.09l-4.9-6.046a.31.31,0,0,0-.335-.094l-22.9,7.489a.31.31,0,0,0-.214.294v9.792a2.561,2.561,0,0,0,2.561,2.561h47.431a2.561,2.561,0,0,0,2.561-2.561v-16.37a.3.3,0,0,1,.07-.194l3.743-4.59A.312.312,0,0,0,578.038,2043.118Zm-45.851,20.147a2.81,2.81,0,0,1-1.915.639h-4.925a.336.336,0,0,1-.335-.335v-.914a.336.336,0,0,1,.335-.335h4.908a.739.739,0,0,0,.76-.412.6.6,0,0,0,.057-.254.624.624,0,0,0-.375-.593,1,1,0,0,0-.442-.094h-2.571a2.629,2.629,0,0,1-2.233-.958,2.142,2.142,0,0,1,.295-2.919,2.825,2.825,0,0,1,1.938-.646h3.7a.336.336,0,0,1,.335.335v.914a.336.336,0,0,1-.335.334H527.7a.745.745,0,0,0-.76.422.669.669,0,0,0-.057.261.622.622,0,0,0,.4.593,1,1,0,0,0,.422.084h2.571a2.632,2.632,0,0,1,2.176.921,2.108,2.108,0,0,1,.469,1.342A2.044,2.044,0,0,1,532.187,2063.265Zm6.093-5.571a.336.336,0,0,1-.335.334H536.7a.336.336,0,0,0-.335.335v5.2a.336.336,0,0,1-.335.335h-1.111a.336.336,0,0,1-.335-.335v-5.2a.336.336,0,0,0-.335-.335H533.1a.336.336,0,0,1-.335-.334v-.914a.336.336,0,0,1,.335-.335h4.854a.336.336,0,0,1,.335.335v.914Zm7.5,5.695a5.4,5.4,0,0,1-2.8.676,4.6,4.6,0,0,1-3.227-1.088,3.608,3.608,0,0,1-1.135-2.8,3.529,3.529,0,0,1,1.54-3.123,4.95,4.95,0,0,1,2.822-.77,4.765,4.765,0,0,1,3.425,1.155,3.611,3.611,0,0,1,1.068,2.739A3.462,3.462,0,0,1,545.776,2063.389Zm9.762-5.695a.336.336,0,0,1-.335.334h-3.585a1.331,1.331,0,0,0-1.229.9,3.132,3.132,0,0,0-.261,1.3,2.372,2.372,0,0,0,.562,1.7,1.258,1.258,0,0,0,.927.4H555.2a.336.336,0,0,1,.335.335v.914a.336.336,0,0,1-.335.335h-3.8a2.778,2.778,0,0,1-2.41-1.276,4.261,4.261,0,0,1-.74-2.514,4.012,4.012,0,0,1,.817-2.571,2.865,2.865,0,0,1,2.337-1.1h3.8a.336.336,0,0,1,.335.335v.917Zm7.626,6.21h-1.63a.351.351,0,0,1-.231-.09l-2.645-2.474a.177.177,0,0,0-.3.131v2.1a.336.336,0,0,1-.335.335h-1.1a.336.336,0,0,1-.335-.335v-6.786a.336.336,0,0,1,.335-.335h1.1a.336.336,0,0,1,.335.335v2.116a.176.176,0,0,0,.3.127l2.645-2.487a.329.329,0,0,1,.231-.09h1.439a.335.335,0,0,1,.224.586l-3.107,2.805a.337.337,0,0,0,0,.5l3.3,2.983A.333.333,0,0,1,563.164,2063.9Zm8.4-6.21a.336.336,0,0,1-.335.334h-4.878a.745.745,0,0,0-.76.422.671.671,0,0,0-.057.261.615.615,0,0,0,.4.589,1,1,0,0,0,.422.084h2.571a2.632,2.632,0,0,1,2.176.92,2.109,2.109,0,0,1,.469,1.343,2.048,2.048,0,0,1-.733,1.614,2.81,2.81,0,0,1-1.915.639h-3.95a.336.336,0,0,1-.335-.335v-.914a.336.336,0,0,1,.335-.335h3.93a.74.74,0,0,0,.76-.412.6.6,0,0,0,.057-.255.616.616,0,0,0-.375-.589,1,1,0,0,0-.442-.094h-2.571a2.629,2.629,0,0,1-2.233-.958,2.142,2.142,0,0,1,.295-2.919,2.825,2.825,0,0,1,1.938-.646h4.9a.336.336,0,0,1,.335.335v.914Z" transform="translate(-33.421 -29.455)" fill="#fff"/>
  </g>
</svg>
