<svg xmlns="http://www.w3.org/2000/svg" width="42.75" height="42.85" viewBox="0 0 42.75 42.85">
  <g id="Grupo_1018" data-name="Grupo 1018" transform="translate(-1301 -2377.15)">
    <g id="Grupo_1007" data-name="Grupo 1007" transform="translate(520.6 1891.5)">
      <path id="Trazado_14199" data-name="Trazado 14199" d="M813.6,528.5H785.7a5.335,5.335,0,0,1-5.3-5.3V495.3a5.335,5.335,0,0,1,5.3-5.3h13.9a1.3,1.3,0,0,1,0,2.6H785.7a2.689,2.689,0,0,0-2.7,2.7v27.9a2.689,2.689,0,0,0,2.7,2.7h27.9a2.689,2.689,0,0,0,2.7-2.7V509.3a1.3,1.3,0,0,1,2.6,0v13.9A5.335,5.335,0,0,1,813.6,528.5Z"/>
    </g>
    <g id="Grupo_1008" data-name="Grupo 1008" transform="translate(520.6 1891.5)">
      <path id="Trazado_14200" data-name="Trazado 14200" d="M793.7,516.5a1.086,1.086,0,0,1-.9-.4,1.213,1.213,0,0,1-.3-1.3l2-8,.3-.6,18.9-18.9a5.515,5.515,0,1,1,7.8,7.8L802.6,514a.864.864,0,0,1-.6.3l-8,2C793.9,516.5,793.8,516.5,793.7,516.5Zm2.7-8.3L795,514l5.7-1.4,19.5-19.5a3.041,3.041,0,1,0-4.3-4.3Zm5.3,5Z"/>
    </g>
    <g id="Grupo_1013" data-name="Grupo 1013" transform="translate(520.6 1891.5)">
      <path id="Trazado_14213" data-name="Trazado 14213" d="M801.5,513.2a1.33,1.33,0,0,1-.8-.3L796,508a1.061,1.061,0,0,1,1.5-1.5l4.8,4.9a1.087,1.087,0,0,1,0,1.5A1.136,1.136,0,0,1,801.5,513.2Z"/>
    </g>
    <g id="Grupo_1014" data-name="Grupo 1014" transform="translate(520.6 1891.5)">
      <path id="Trazado_14214" data-name="Trazado 14214" d="M817.8,497.1a1.33,1.33,0,0,1-.8-.3l-4.8-4.9a1.061,1.061,0,0,1,1.5-1.5l4.8,4.9a1.087,1.087,0,0,1,0,1.5A.779.779,0,0,1,817.8,497.1Z"/>
    </g>
  </g>
</svg>
