<svg xmlns="http://www.w3.org/2000/svg" width="71.957" height="34.101" viewBox="0 0 71.957 34.101">
  <g id="Grupo_1025" data-name="Grupo 1025" transform="translate(-1235.443 -2280.599)">
    <path id="Trazado_14185" data-name="Trazado 14185" d="M760.1,407.7l-5-3.9a1.843,1.843,0,0,0-2-.3,1.975,1.975,0,0,0-1.2,1.8v.9h-9.4a1.9,1.9,0,0,0-1.9,1.9v2.6a1.58,1.58,0,0,0,1.6,1.6h9.7v.9a1.974,1.974,0,0,0,.6,1.4,1.816,1.816,0,0,0,1.4.6h0a1.922,1.922,0,0,0,1.2-.4l5-3.9a1.709,1.709,0,0,0,.7-1.3,1.792,1.792,0,0,0-.4-1.4,1.068,1.068,0,0,0-.3-.5m-7.4,3H742.5a.43.43,0,0,1-.4-.4V408a.43.43,0,0,1,.4-.4h10.2a.789.789,0,0,0,.8-.8v-1.7a.367.367,0,0,1,.1-.3.454.454,0,0,1,.5,0l5,3.9h0c.1.1.1.1.1.2a.367.367,0,0,1-.1.3h0l-5.1,4a.367.367,0,0,1-.3.1c-.1,0-.2-.1-.3-.1-.1-.1-.1-.1-.1-.2v-1.7c.2-.3-.1-.6-.6-.6" transform="translate(520.6 1891.5)"/>
    <path id="Trazado_14186" data-name="Trazado 14186" d="M760.8,397.7a1.58,1.58,0,0,0-1.6-1.6h-9.6v-.9a1.9,1.9,0,0,0-1.9-1.9h0a1.922,1.922,0,0,0-1.2.4l-5,3.9a1.709,1.709,0,0,0-.7,1.3,1.792,1.792,0,0,0,.4,1.4l.3.3,5,3.9a2.01,2.01,0,0,0,1.3.4,1.445,1.445,0,0,0,.7-.2,1.975,1.975,0,0,0,1.2-1.8V402h9.4a1.967,1.967,0,0,0,1.9-1.9V398c-.2-.1-.2-.2-.2-.3m-12-.1H759a.43.43,0,0,1,.4.4v2.3a.43.43,0,0,1-.4.4H748.8a.789.789,0,0,0-.8.8v1.7a.43.43,0,0,1-.4.4c-.1,0-.2,0-.2-.1l-5-3.9h0c-.1-.1-.1-.1-.1-.2a.367.367,0,0,1,.1-.3h0l5.1-4c.2-.1.4-.1.5.1a.31.31,0,0,1,.1.2v1.7c-.1.2.3.5.7.5" transform="translate(520.6 1891.5)"/>
    <path id="Trazado_14187" data-name="Trazado 14187" d="M727.4,407.3a5.6,5.6,0,1,1,5.6-5.6,5.591,5.591,0,0,1-5.6,5.6m0-9.1a3.5,3.5,0,1,0,3.5,3.5,3.543,3.543,0,0,0-3.5-3.5" transform="translate(520.6 1891.5)"/>
    <path id="Trazado_14188" data-name="Trazado 14188" d="M728.6,417.3a1.693,1.693,0,0,1-2.3,0l-7-5.9a12.782,12.782,0,0,1-3.4-14.8,12.647,12.647,0,0,1,24.2,5.1,12.387,12.387,0,0,1-4.5,9.6Zm-1.7-26.1a10.356,10.356,0,0,0-6.2,18.3l6,5.1a1.088,1.088,0,0,0,1.5,0l6-5.1a10.636,10.636,0,0,0,3.7-8,10.453,10.453,0,0,0-11-10.3" transform="translate(520.6 1891.5)"/>
    <path id="Trazado_14189" data-name="Trazado 14189" d="M774.1,407.3a5.6,5.6,0,1,1,5.6-5.6,5.591,5.591,0,0,1-5.6,5.6m0-9.1a3.5,3.5,0,1,0,3.5,3.5,3.543,3.543,0,0,0-3.5-3.5" transform="translate(520.6 1891.5)"/>
    <path id="Trazado_14190" data-name="Trazado 14190" d="M775.3,417.3a1.693,1.693,0,0,1-2.3,0l-7-5.9a12.782,12.782,0,0,1-3.4-14.8,12.647,12.647,0,0,1,24.2,5.1,12.387,12.387,0,0,1-4.5,9.6Zm-1.7-26.1a10.356,10.356,0,0,0-6.2,18.3l6,5.1a1.088,1.088,0,0,0,1.5,0l6-5.1a10.636,10.636,0,0,0,3.7-8,10.453,10.453,0,0,0-11-10.3" transform="translate(520.6 1891.5)"/>
    <path id="Trazado_14191" data-name="Trazado 14191" d="M733,421.3c0,1.1-2.5,1.9-5.6,1.9s-5.6-.9-5.6-1.9c0-1.1,2.5-1.9,5.6-1.9,3.1-.1,5.6.8,5.6,1.9" transform="translate(520.6 1891.5)"/>
    <path id="Trazado_14192" data-name="Trazado 14192" d="M779.7,421.3c0,1.1-2.5,1.9-5.6,1.9s-5.6-.9-5.6-1.9c0-1.1,2.5-1.9,5.6-1.9,3.1-.1,5.6.8,5.6,1.9" transform="translate(520.6 1891.5)"/>
  </g>
</svg>
