<svg id="Grupo_24" data-name="Grupo 24" xmlns="http://www.w3.org/2000/svg" width="22.988" height="27.587" viewBox="0 0 22.988 27.587">
  <g id="notification" transform="translate(0 0)">
    <g id="Grupo_10" data-name="Grupo 10" transform="translate(0)">
      <g id="Grupo_9" data-name="Grupo 9" transform="translate(0)">
        <path id="Trazado_2" data-name="Trazado 2" d="M65.581,23.268l-1.974-3.29a9.772,9.772,0,0,1-1.393-5.028V12.069a8.056,8.056,0,0,0-5.747-7.707V2.3a2.3,2.3,0,0,0-4.6,0V4.362a8.056,8.056,0,0,0-5.747,7.707v2.882a9.778,9.778,0,0,1-1.392,5.027l-1.974,3.29a.576.576,0,0,0,.492.871H65.088a.575.575,0,0,0,.493-.87Z" transform="translate(-42.675 0)" fill="#fff"/>
      </g>
    </g>
    <g id="Grupo_12" data-name="Grupo 12" transform="translate(7.874 25.288)">
      <g id="Grupo_11" data-name="Grupo 11" transform="translate(0)">
        <path id="Trazado_3" data-name="Trazado 3" d="M188.815,469.333a4,4,0,0,0,7.239,0Z" transform="translate(-188.815 -469.333)" fill="#fff"/>
      </g>
    </g>
  </g>
  <g id="Elipse_1" data-name="Elipse 1" transform="translate(11.494 0)" fill="#fffcfd" stroke="#ec1c24" stroke-width="3">
    <circle cx="5.747" cy="5.747" r="5.747" stroke="none"/>
    <circle cx="5.747" cy="5.747" r="4.247" fill="none"/>
  </g>
</svg>
