<svg xmlns="http://www.w3.org/2000/svg" xmlns:xlink="http://www.w3.org/1999/xlink" width="356" height="33" viewBox="0 0 356 33">
  <defs>
    <filter id="Trazado_1370" x="0" y="0" width="355" height="33" filterUnits="userSpaceOnUse">
      <feOffset dy="3" input="SourceAlpha"/>
      <feGaussianBlur stdDeviation="3" result="blur"/>
      <feFlood flood-opacity="0.161" result="color"/>
      <feComposite operator="out" in="SourceGraphic" in2="blur"/>
      <feComposite operator="in" in="color"/>
      <feComposite operator="in" in2="SourceGraphic"/>
    </filter>
    <linearGradient id="linear-gradient" x1="0.989" y1="0.5" x2="0.082" y2="0.894" gradientUnits="objectBoundingBox">
      <stop offset="0" stop-color="#ec1c24"/>
      <stop offset="1" stop-color="#760e12"/>
    </linearGradient>
    <filter id="Rectángulo_192" x="168" y="0" width="188" height="33" filterUnits="userSpaceOnUse">
      <feOffset dy="3" input="SourceAlpha"/>
      <feGaussianBlur stdDeviation="3" result="blur-2"/>
      <feFlood flood-opacity="0.161" result="color-2"/>
      <feComposite operator="out" in="SourceGraphic" in2="blur-2"/>
      <feComposite operator="in" in="color-2"/>
      <feComposite operator="in" in2="SourceGraphic"/>
    </filter>
  </defs>
  <g id="Grupo_14305" data-name="Grupo 14305" transform="translate(-1124 -3063)">
    <g data-type="innerShadowGroup">
      <path id="Trazado_1370-2" data-name="Trazado 1370" d="M16.5,0h322a16.5,16.5,0,0,1,0,33H16.5a16.5,16.5,0,0,1,0-33Z" transform="translate(1124 3063)" fill="#b1b1b1"/>
      <g transform="matrix(1, 0, 0, 1, 1124, 3063)" filter="url(#Trazado_1370)">
        <path id="Trazado_1370-3" data-name="Trazado 1370" d="M16.5,0h322a16.5,16.5,0,0,1,0,33H16.5a16.5,16.5,0,0,1,0-33Z" fill="#fff"/>
      </g>
    </g>
    <g data-type="innerShadowGroup">
      <rect id="Rectángulo_192-2" data-name="Rectángulo 192" width="188" height="33" rx="16.5" transform="translate(1292 3063)" fill="url(#linear-gradient)"/>
      <g transform="matrix(1, 0, 0, 1, 1124, 3063)" filter="url(#Rectángulo_192)">
        <rect id="Rectángulo_192-3" data-name="Rectángulo 192" width="188" height="33" rx="16.5" transform="translate(168)" fill="#fff"/>
      </g>
    </g>
    <text id="Summer_Bag" data-name="Summer Bag" transform="translate(1197 3085)" font-size="16" font-family="SegoeUIBlack, Segoe UI" opacity="0.35"><tspan x="0" y="0">New</tspan></text>
    <text id="Summer_Bag-2" data-name="Summer Bag" transform="translate(1356 3085)" fill="#fff" font-size="16" font-family="SegoeUIBlack, Segoe UI"><tspan x="0" y="0">Historial</tspan></text>
  </g>
</svg>
