<svg xmlns="http://www.w3.org/2000/svg" width="16.91" height="18.789" viewBox="0 0 16.91 18.789">
  <path id="Icon_material-date-range" data-name="Icon material-date-range" d="M10.137,11.455H8.258v1.879h1.879Zm3.758,0H12.016v1.879h1.879Zm3.758,0H15.773v1.879h1.879Zm1.879-6.576h-.939V3H16.713V4.879H9.2V3H7.318V4.879H6.379a1.87,1.87,0,0,0-1.87,1.879L4.5,19.91a1.878,1.878,0,0,0,1.879,1.879H19.531A1.884,1.884,0,0,0,21.41,19.91V6.758A1.884,1.884,0,0,0,19.531,4.879Zm0,15.031H6.379V9.576H19.531Z" transform="translate(-4.5 -3)" fill="#858485"/>
</svg>
