<svg id="left-arrow" xmlns="http://www.w3.org/2000/svg" width="19.667" height="16.335" viewBox="0 0 19.667 16.335">
  <g id="Grupo_153" data-name="Grupo 153">
    <path id="Trazado_136" data-name="Trazado 136" d="M18.561,48.3l.031.007H5.432L9.569,44.16a1.087,1.087,0,0,0,0-1.527l-.644-.644a1.077,1.077,0,0,0-1.52,0L.313,49.079a1.084,1.084,0,0,0,0,1.525L7.405,57.7a1.078,1.078,0,0,0,1.52,0l.644-.644a1.065,1.065,0,0,0,.314-.76,1.033,1.033,0,0,0-.314-.746L5.385,51.377H18.576a1.115,1.115,0,0,0,1.091-1.1v-.911A1.093,1.093,0,0,0,18.561,48.3Z" transform="translate(0 -41.674)" fill="#fff"/>
  </g>
</svg>
