<svg xmlns="http://www.w3.org/2000/svg" width="44" height="44.1" viewBox="0 0 44 44.1">
  <g id="Grupo_1019" data-name="Grupo 1019" transform="translate(-1245.2 -2377.3)">
    <path id="Trazado_14215" data-name="Trazado 14215" d="M738.3,485.8H730a1.1,1.1,0,0,0,0,2.2h6.3a.9.9,0,0,1,.9.9v6.3a1.1,1.1,0,1,0,2.2,0v-8.3a1.11,1.11,0,0,0-1.1-1.1" transform="translate(520.6 1891.5)"/>
    <path id="Trazado_14216" data-name="Trazado 14216" d="M745.6,527.5a19.679,19.679,0,0,1-18.7-19.7,19.2,19.2,0,0,1,6-14.1l5.4-5.2a1.04,1.04,0,0,0,0-1.6,2.01,2.01,0,0,0-.8-.4h0a1.136,1.136,0,0,0-.8.3l-5.4,5.2a22.027,22.027,0,0,0,14.2,37.8h.1a1.33,1.33,0,0,0,.8-.3,1.234,1.234,0,0,0,.4-.8h0a1.287,1.287,0,0,0-1.2-1.2" transform="translate(520.6 1891.5)"/>
    <path id="Trazado_14217" data-name="Trazado 14217" d="M763.3,527.2H757a.684.684,0,0,1-.7-.7v-6.3a1.4,1.4,0,0,0-2.8,0v8.3a1.367,1.367,0,0,0,1.4,1.4h8.3a1.367,1.367,0,0,0,1.4-1.4,1.206,1.206,0,0,0-1.3-1.3" transform="translate(520.6 1891.5)"/>
    <path id="Trazado_14218" data-name="Trazado 14218" d="M762.5,492.6a22.023,22.023,0,0,0-14.8-6.8,1.136,1.136,0,0,0-.8.3,1.234,1.234,0,0,0-.4.8,1.11,1.11,0,0,0,1.1,1.1,19.679,19.679,0,0,1,18.7,19.7,19.2,19.2,0,0,1-6,14.1l-5.4,5.2a1.041,1.041,0,0,0,0,1.6,2.011,2.011,0,0,0,.8.4h0a1.135,1.135,0,0,0,.8-.3l5.4-5.2a21.863,21.863,0,0,0,.6-30.9" transform="translate(520.6 1891.5)"/>
    <path id="Trazado_14219" data-name="Trazado 14219" d="M746.6,513a5.164,5.164,0,0,1-5.2-5.2,5.228,5.228,0,0,1,5.2-5.2,5.164,5.164,0,0,1,5.2,5.2,5.228,5.228,0,0,1-5.2,5.2m0-8.5a3.2,3.2,0,1,0,3.2,3.2,3.222,3.222,0,0,0-3.2-3.2" transform="translate(520.6 1891.5)"/>
    <path id="Trazado_14220" data-name="Trazado 14220" d="M747.7,522.3a1.8,1.8,0,0,1-2.2,0l-6.5-5.5a11.828,11.828,0,0,1,5.5-20.6,11.766,11.766,0,0,1,9.6,20.6ZM746.1,498a9.9,9.9,0,0,0-8.8,6.7,9.615,9.615,0,0,0,2.9,10.4l5.6,4.7a1.2,1.2,0,0,0,1.4,0l5.6-4.7a9.753,9.753,0,0,0,3.4-7.4,9.563,9.563,0,0,0-10.1-9.7" transform="translate(520.6 1891.5)"/>
  </g>
</svg>
