<svg xmlns="http://www.w3.org/2000/svg" width="43.5" height="46.4" viewBox="0 0 43.5 46.4">
  <g id="Grupo_1023" data-name="Grupo 1023" transform="translate(-1021.099 -2374.5)">
    <g id="Grupo_1012" data-name="Grupo 1012" transform="translate(520.6 1891.5)">
      <path id="Trazado_14211" data-name="Trazado 14211" d="M540.2,502.2a16.25,16.25,0,0,1,0,8l-.3,1.3,3.1,2.2-4.1,7.1-3-2.2-1.2,1.1a19.843,19.843,0,0,1-6.9,4l-1.4.5v4.2h-8.2v-4.2l-1.4-.5a18.4,18.4,0,0,1-6.9-4l-1.1-1-3.1,1.9-4.2-6.9,3.1-2.2-.3-1.3a16.25,16.25,0,0,1,0-8l.4-1.6-2.8-1.4,4-7.1,3,1.4,1-.9a18.181,18.181,0,0,1,6.9-3.9l1.4-.5V484h8.2v4.2l1.4.5a19.613,19.613,0,0,1,6.9,3.9l1.2,1.1,3-2.2,4.1,7.1-3.1,2.2Z" fill="none" stroke="#000" stroke-linejoin="round" stroke-width="2"/>
      <g id="Grupo_1011" data-name="Grupo 1011">
        <path id="Trazado_14212" data-name="Trazado 14212" d="M524.9,521.8h-5.4a.945.945,0,0,1-1-1v-2l-.2-.1a12.564,12.564,0,0,1-4.9-2.8l-.2-.2-1.4.8a1.062,1.062,0,0,1-.8.1c-.3-.1-.5-.2-.6-.5l-2.7-4.5a.889.889,0,0,1,.3-1.3l1.5-1.1-.1-.2a14.278,14.278,0,0,1-.3-2.9,15.042,15.042,0,0,1,.3-2.9l.1-.3-1.2-.6a1.024,1.024,0,0,1-.5-.6.755.755,0,0,1,.1-.8l2.7-4.7a.984.984,0,0,1,1.3-.4l1.4.7.2-.2a13.319,13.319,0,0,1,4.9-2.8l.2-.1v-2a.945.945,0,0,1,1-1H525a.945.945,0,0,1,1,1v2l.2.1a12.564,12.564,0,0,1,4.9,2.8l.2.2,1.3-1a1.077,1.077,0,0,1,.8-.2,1.157,1.157,0,0,1,.7.5l2.7,4.7a.974.974,0,0,1-.3,1.3l-1.5,1.1.1.2h0a14.278,14.278,0,0,1,.3,2.9,15.039,15.039,0,0,1-.3,2.9l-.1.2,1.5,1.1a1.091,1.091,0,0,1,.3,1.3l-2.7,4.7a1.275,1.275,0,0,1-.7.5.778.778,0,0,1-.8-.2l-1.3-1-.2.2a13.319,13.319,0,0,1-4.9,2.8l-.2.1v2C525.9,521.4,525.4,521.8,524.9,521.8Zm-10.3-23.9-.7.6a1.09,1.09,0,0,1-1.1.2l-1.2-.5-1.7,3,.9.4a1,1,0,0,1,.5,1.1l-.2,1a11.208,11.208,0,0,0-.3,2.4,9.863,9.863,0,0,0,.3,2.4l.2.9a.951.951,0,0,1-.4,1l-1.3.9,1.8,2.9,1.2-.7a1.048,1.048,0,0,1,1.2.1l.8.7a10.977,10.977,0,0,0,4.2,2.4l.9.3a.993.993,0,0,1,.7,1v1.8h3.4V518a1.2,1.2,0,0,1,.7-1l.9-.3a10.977,10.977,0,0,0,4.2-2.4l.8-.8a1.059,1.059,0,0,1,1.3-.1l1.1.8,1.7-2.9-1.3-1a.951.951,0,0,1-.4-1l.2-.9a11.208,11.208,0,0,0,.3-2.4,9.862,9.862,0,0,0-.3-2.4l-.2-.9a.951.951,0,0,1,.4-1l1.3-.9-1.7-2.9-1.1.8a.942.942,0,0,1-1.3-.1l-.8-.8a10.976,10.976,0,0,0-4.2-2.4l-.9-.3a.993.993,0,0,1-.7-1v-1.8h-3.4v1.8a1.2,1.2,0,0,1-.7,1l-.9.3"/>
      </g>
      <circle id="Elipse_3980" data-name="Elipse 3980" cx="6" cy="6" r="6" transform="translate(516.2 500.2)" fill="none" stroke="#000" stroke-linejoin="round" stroke-width="2"/>
    </g>
  </g>
</svg>
