<svg xmlns="http://www.w3.org/2000/svg" width="47" height="54.022" viewBox="0 0 47 54.022">
  <g id="task-actions_7274207" transform="translate(-74.2 -10.201)">
    <path id="Trazado_26272" data-name="Trazado 26272" d="M150.031,161.862H159.4a1.231,1.231,0,1,0,0-2.462h-9.374a1.231,1.231,0,1,0,0,2.462Z" transform="translate(-66.402 -132.803)"/>
    <path id="Trazado_26273" data-name="Trazado 26273" d="M150.031,215.262h21.1a1.231,1.231,0,0,0,0-2.462h-21.1a1.231,1.231,0,1,0,0,2.462Z" transform="translate(-66.402 -180.335)"/>
    <path id="Trazado_26274" data-name="Trazado 26274" d="M150.031,268.562h12.89a1.231,1.231,0,0,0,0-2.462h-12.89a1.231,1.231,0,1,0,0,2.462Z" transform="translate(-66.402 -227.778)"/>
    <path id="Trazado_26275" data-name="Trazado 26275" d="M114.156,41.63v-22a3.5,3.5,0,0,0-3.571-3.571h-4.637a2.4,2.4,0,0,0-2.4-2.341H99.607a5.95,5.95,0,0,0-10.857,0H84.8a2.412,2.412,0,0,0-2.4,2.341H77.771A3.5,3.5,0,0,0,74.2,19.63V60.652a3.5,3.5,0,0,0,3.571,3.571H109.42a11.8,11.8,0,0,0,11.78-11.78A12.015,12.015,0,0,0,114.156,41.63ZM84.859,18.4V16.168h4.747a1.23,1.23,0,0,0,1.231-.857,3.428,3.428,0,0,1,6.681,0,1.212,1.212,0,0,0,1.231.857H103.5V18.4Zm33.879,34.055a9.319,9.319,0,1,1-9.319-9.319A9.366,9.366,0,0,1,118.739,52.454ZM76.651,19.63a1.061,1.061,0,0,1,1.121-1.121h4.637a2.4,2.4,0,0,0,2.4,2.341h18.758a2.412,2.412,0,0,0,2.4-2.341H110.6a1.061,1.061,0,0,1,1.121,1.121V40.893a14.629,14.629,0,0,0-2.286-.22,11.776,11.776,0,0,0-7.2,21.1H77.771a1.061,1.061,0,0,1-1.121-1.121Z" transform="translate(0 0)"/>
    <path id="Trazado_26276" data-name="Trazado 26276" d="M360.347,351.819h0a1.3,1.3,0,0,0-1.6.495l-2.78,5.56-2.286-2.286a1.214,1.214,0,0,0-1.714-.011,1.207,1.207,0,0,0-.011,1.714l3.527,3.538a1.1,1.1,0,0,0,.835.374h.286a1.506,1.506,0,0,0,.857-.615l3.516-7.044A1.455,1.455,0,0,0,360.347,351.819Z" transform="translate(-246.916 -303.992)"/>
  </g>
</svg>
