<svg xmlns="http://www.w3.org/2000/svg" width="43.641" height="42.458" viewBox="0 0 43.641 42.458">
  <g id="locations_2483467" transform="translate(-2.2 -3.375)">
    <path id="Trazado_26251" data-name="Trazado 26251" d="M26.588,20.1a1.01,1.01,0,0,0-1.052,1.052v6.835H17.475l1.052-1.052a.983.983,0,0,0,0-1.577.983.983,0,0,0-1.577,0l-2.979,2.979a.983.983,0,0,0,0,1.577l2.979,2.979a1.339,1.339,0,0,0,.876.351c.351,0,.526-.175.876-.351a.983.983,0,0,0,0-1.577L17.65,30.265h8.938a1.01,1.01,0,0,0,1.052-1.052V21.327c.175-.876-.351-1.227-1.052-1.227Z" transform="translate(8.561 12.588)"/>
    <path id="Trazado_26252" data-name="Trazado 26252" d="M8.727,16.914a1.01,1.01,0,0,0,1.052-1.052V8.5H17.49L16.263,9.728a.983.983,0,0,0,0,1.577,1.339,1.339,0,0,0,.876.351c.351,0,.526-.175.876-.351L21,8.326a.983.983,0,0,0,0-1.577L18.016,3.769a.983.983,0,0,0-1.577,0,.983.983,0,0,0,0,1.577l.7.876H8.727A1.2,1.2,0,0,0,7.5,7.45v8.413A1.172,1.172,0,0,0,8.727,16.914Z" transform="translate(3.989)"/>
    <g id="Grupo_14269" data-name="Grupo 14269" transform="translate(2.2 20.069)">
      <path id="Trazado_26253" data-name="Trazado 26253" d="M23.582,23.591A10.734,10.734,0,0,0,12.891,12.9,10.85,10.85,0,0,0,2.2,23.591c0,6.31,6.485,11.918,9.464,14.021a2.69,2.69,0,0,0,2.8,0C17.1,35.684,23.582,29.9,23.582,23.591ZM13.066,35.159h-.351c-1.928-1.4-7.887-6.485-7.887-11.567a8.155,8.155,0,0,1,8.062-8.062,8.155,8.155,0,0,1,8.062,8.062C20.953,28.674,14.819,33.756,13.066,35.159Z" transform="translate(-2.2 -12.9)"/>
      <path id="Trazado_26254" data-name="Trazado 26254" d="M9.278,17.6a2.278,2.278,0,1,0,2.278,2.278A2.32,2.32,0,0,0,9.278,17.6Z" transform="translate(1.413 -9.363)"/>
    </g>
    <g id="Grupo_14270" data-name="Grupo 14270" transform="translate(24.459 3.419)">
      <path id="Trazado_26255" data-name="Trazado 26255" d="M36.282,14.091A10.734,10.734,0,0,0,25.591,3.4,10.85,10.85,0,0,0,14.9,14.091c0,6.31,6.485,11.918,9.464,14.021a2.69,2.69,0,0,0,2.8,0C29.8,26.184,36.282,20.4,36.282,14.091ZM25.766,25.659h-.351c-1.928-1.4-7.887-6.485-7.887-11.567a8.062,8.062,0,1,1,16.124,0C33.653,19.174,27.519,24.256,25.766,25.659Z" transform="translate(-14.9 -3.4)"/>
      <path id="Trazado_26256" data-name="Trazado 26256" d="M21.978,8.1a2.278,2.278,0,1,0,2.278,2.278A2.32,2.32,0,0,0,21.978,8.1Z" transform="translate(-11.287 0.137)"/>
    </g>
  </g>
</svg>
