<svg xmlns="http://www.w3.org/2000/svg" width="39.6" height="43" viewBox="0 0 39.6 43">
  <g id="Grupo_1024" data-name="Grupo 1024" transform="translate(-976.5 -2375.4)">
    <path id="Trazado_14201" data-name="Trazado 14201" d="M485.4,491.3h-3.2a1.5,1.5,0,0,1-1.1-.4l-.6-.6a1.5,1.5,0,0,0-1.1-.4H473a1.5,1.5,0,0,0-1.1.4l-.6.6a1.5,1.5,0,0,1-1.1.4H467a1.394,1.394,0,0,0-1.5,1.4h0a1.524,1.524,0,0,0,1.5,1.4h18.5a1.394,1.394,0,0,0,1.5-1.4h0A1.483,1.483,0,0,0,485.4,491.3Z" transform="translate(520.6 1891.5)"/>
    <g id="Grupo_1015" data-name="Grupo 1015" transform="translate(520.6 1891.5)">
      <path id="Trazado_14221" data-name="Trazado 14221" d="M483.5,526.9H468a19.412,19.412,0,0,1-2.4-.2,20.16,20.16,0,0,1-2.3-.7,21.165,21.165,0,0,1-2.1-1.1,6.55,6.55,0,0,1-1.8-1.5,11.919,11.919,0,0,1-1.5-1.8,21.171,21.171,0,0,1-1.1-2.1,15.46,15.46,0,0,1-.7-2.3,9.737,9.737,0,0,1-.2-2.4V496a19.418,19.418,0,0,1,.2-2.4,20.154,20.154,0,0,1,.7-2.3,21.159,21.159,0,0,1,1.1-2.1,6.549,6.549,0,0,1,1.5-1.8,11.92,11.92,0,0,1,1.8-1.5,21.165,21.165,0,0,1,2.1-1.1,15.46,15.46,0,0,1,2.3-.7,9.737,9.737,0,0,1,2.4-.2h15.4a19.418,19.418,0,0,1,2.4.2,20.154,20.154,0,0,1,2.3.7,21.159,21.159,0,0,1,2.1,1.1,8.963,8.963,0,0,1,1.8,1.5,11.92,11.92,0,0,1,1.5,1.8,21.165,21.165,0,0,1,1.1,2.1,15.46,15.46,0,0,1,.7,2.3,9.737,9.737,0,0,1,.2,2.4v18.8a19.419,19.419,0,0,1-.2,2.4,20.154,20.154,0,0,1-.7,2.3,21.152,21.152,0,0,1-1.1,2.1,8.963,8.963,0,0,1-1.5,1.8,11.924,11.924,0,0,1-1.8,1.5,21.152,21.152,0,0,1-2.1,1.1,15.46,15.46,0,0,1-2.3.7A16.407,16.407,0,0,1,483.5,526.9ZM468,486.1a12.252,12.252,0,0,0-1.9.2,6.971,6.971,0,0,0-1.9.6,9.149,9.149,0,0,0-1.7.9A15.751,15.751,0,0,0,461,489a7.887,7.887,0,0,0-1.2,1.5,5.559,5.559,0,0,0-.9,1.7c-.2.6-.4,1.2-.6,1.9a12.252,12.252,0,0,0-.2,1.9v18.8a12.253,12.253,0,0,0,.2,1.9,6.971,6.971,0,0,0,.6,1.9,9.15,9.15,0,0,0,.9,1.7l1.2,1.5a7.886,7.886,0,0,0,1.5,1.2,5.559,5.559,0,0,0,1.7.9c.6.2,1.2.4,1.9.6a12.255,12.255,0,0,0,1.9.2h15.4a12.248,12.248,0,0,0,1.9-.2,6.97,6.97,0,0,0,1.9-.6,9.145,9.145,0,0,0,1.7-.9l1.5-1.2a7.887,7.887,0,0,0,1.2-1.5,5.558,5.558,0,0,0,.9-1.7c.2-.6.4-1.2.6-1.9a12.251,12.251,0,0,0,.2-1.9V496a12.252,12.252,0,0,0-.2-1.9,6.971,6.971,0,0,0-.6-1.9,9.149,9.149,0,0,0-.9-1.7l-1.2-1.5a7.887,7.887,0,0,0-1.5-1.2,5.559,5.559,0,0,0-1.7-.9c-.6-.2-1.2-.4-1.9-.6a12.252,12.252,0,0,0-1.9-.2H468Z"/>
    </g>
    <g id="Grupo_1016" data-name="Grupo 1016" transform="translate(520.6 1891.5)">
      <path id="Trazado_14222" data-name="Trazado 14222" d="M483.4,498.5a1.654,1.654,0,0,1,1.4,1.7v17.4a1.655,1.655,0,0,1-1.7,1.5H468.4a1.655,1.655,0,0,1-1.7-1.5V500.2a1.578,1.578,0,0,1,1.4-1.7h15.3m0-2H468a3.572,3.572,0,0,0-3.4,3.7v17.4a3.654,3.654,0,0,0,3.7,3.5H483a3.654,3.654,0,0,0,3.7-3.5V500.2a3.43,3.43,0,0,0-3.3-3.7Z"/>
    </g>
    <path id="Trazado_14223" data-name="Trazado 14223" d="M475.7,514.3h0a.43.43,0,0,1-.4-.4v-9.4a.43.43,0,0,1,.4-.4h0a.43.43,0,0,1,.4.4v9.4C476.2,514.1,476,514.3,475.7,514.3Z" transform="translate(520.6 1891.5)" fill="none" stroke="#000" stroke-linejoin="round" stroke-width="2"/>
    <path id="Trazado_14224" data-name="Trazado 14224" d="M480.4,514.3h0a.43.43,0,0,1-.4-.4v-9.4a.43.43,0,0,1,.4-.4h0a.43.43,0,0,1,.4.4v9.4A.43.43,0,0,1,480.4,514.3Z" transform="translate(520.6 1891.5)" fill="none" stroke="#000" stroke-linejoin="round" stroke-width="2"/>
    <path id="Trazado_14225" data-name="Trazado 14225" d="M471.1,514.3h0a.43.43,0,0,1-.4-.4v-9.4a.43.43,0,0,1,.4-.4h0a.43.43,0,0,1,.4.4v9.4A.366.366,0,0,1,471.1,514.3Z" transform="translate(520.6 1891.5)" fill="none" stroke="#000" stroke-linejoin="round" stroke-width="2"/>
  </g>
</svg>
